<?xml version='1.0' encoding='UTF-8'?>
<svg xmlns="http://www.w3.org/2000/svg" style="enable-background:new 0 0 525 375;" version="1.1" viewBox="0 0 525 375" x="0px" y="0px" xml:space="preserve">
<g id="VuMark-ClearSpace">
	<rect height="375" style="fill:#BD2784;" width="525" />
</g>
<g id="VuMark-Border">
	<polyline points="501.118,126.908 431.02,30.444 217.223,30.444 158.808,88.647 77.028,95.603    25.623,191.722 22.118,261.404 77.028,353 422.842,348.362 501.118,248.65  " style="fill:#FFFFFF;" />
</g>
<g id="VuMark-DarkElements">
	<polygon id="d0001" points="150.003,219.933 145.669,227.439 137.003,227.439 132.669,219.933    137.003,212.428 145.669,212.428  " style="fill:#09060A;" />
	<polygon id="d0002" points="150.444,235.752 146.111,243.258 137.444,243.258 133.111,235.752    137.444,228.246 146.111,228.246  " style="fill:#09060A;" />
	<polygon id="d0006" points="178.075,235.784 173.741,243.289 165.075,243.289 160.741,235.784    165.075,228.278 173.741,228.278  " style="fill:#09060A;" />
	<polygon id="d0007" points="191.809,243.912 187.475,251.418 178.809,251.418 174.475,243.912    178.809,236.406 187.475,236.406  " style="fill:#09060A;" />
	<polygon id="d0010" points="206.075,236.686 201.741,244.191 193.075,244.191 188.741,236.686    193.075,229.18 201.741,229.18  " style="fill:#09060A;" />
	<polygon id="d0011" points="206.213,220.564 201.88,228.069 193.213,228.069 188.88,220.564    193.213,213.058 201.88,213.058  " style="fill:#09060A;" />
	<polygon id="d0012" points="220.075,244.052 215.741,251.558 207.075,251.558 202.741,244.052    207.075,236.547 215.741,236.547  " style="fill:#09060A;" />
	<polygon id="d0015" points="136.444,211.503 132.111,219.009 123.444,219.009 119.111,211.503    123.444,203.998 132.111,203.998  " style="fill:#09060A;" />
	<polygon id="d0018" points="164.311,212.129 159.977,219.635 151.311,219.635 146.977,212.129    151.311,204.624 159.977,204.624  " style="fill:#09060A;" />
	<polygon id="d0020" points="192.05,196.139 187.717,203.645 179.05,203.645 174.717,196.139 179.05,188.633    187.717,188.633  " style="fill:#09060A;" />
	<polygon id="d0023" points="147.148,150.021 142.815,157.527 134.148,157.527 129.815,150.021    134.148,142.516 142.815,142.516  " style="fill:#09060A;" />
	<polygon id="d0029" points="205.858,188.529 201.525,196.035 192.858,196.035 188.525,188.529    192.858,181.023 201.525,181.023  " style="fill:#09060A;" />
	<polygon id="d0032" points="218.275,163.977 213.941,171.482 205.275,171.482 200.941,163.977    205.275,156.471 213.941,156.471  " style="fill:#09060A;" />
	<polygon id="d0035" points="234.547,235.927 230.214,243.432 221.547,243.432 217.214,235.927    221.547,228.421 230.214,228.421  " style="fill:#09060A;" />
	<polygon id="d0036" points="234.547,219.783 230.214,227.289 221.547,227.289 217.214,219.783    221.547,212.278 230.214,212.278  " style="fill:#09060A;" />
	<polygon id="d0037" points="248.01,243.912 243.677,251.418 235.01,251.418 230.677,243.912 235.01,236.406    243.677,236.406  " style="fill:#09060A;" />
	<polygon id="d0038" points="248.213,227.806 243.88,235.312 235.213,235.312 230.88,227.806    235.213,220.301 243.88,220.301  " style="fill:#09060A;" />
	<polygon id="d0041" points="275.45,227.703 271.117,235.208 262.45,235.208 258.117,227.703 262.45,220.197    271.117,220.197  " style="fill:#09060A;" />
	<polygon id="d0043" points="233.755,188.37 229.421,195.875 220.755,195.875 216.421,188.37    220.755,180.864 229.421,180.864  " style="fill:#09060A;" />
	<polygon id="d0046" points="261.919,203.981 257.585,211.486 248.919,211.486 244.585,203.981    248.919,196.475 257.585,196.475  " style="fill:#09060A;" />
	<polygon id="d0048" points="275.785,212.118 271.452,219.623 262.785,219.623 258.452,212.118    262.785,204.612 271.452,204.612  " style="fill:#09060A;" />
	<polygon id="d0049" points="276.057,244.383 271.724,251.888 263.057,251.888 258.724,244.383    263.057,236.877 271.724,236.877  " style="fill:#09060A;" />
	<polygon id="d0053" points="304.275,228.479 299.941,235.985 291.275,235.985 286.941,228.479    291.275,220.974 299.941,220.974  " style="fill:#09060A;" />
	<polygon id="d0055" points="318.08,236.482 313.746,243.988 305.08,243.988 300.746,236.482 305.08,228.977    313.746,228.977  " style="fill:#09060A;" />
	<polygon id="d0059" points="304.079,212.756 299.746,220.262 291.079,220.262 286.746,212.756    291.079,205.251 299.746,205.251  " style="fill:#09060A;" />
	<polygon id="d0062" points="318.08,188.562 313.746,196.068 305.08,196.068 300.746,188.562 305.08,181.057    313.746,181.057  " style="fill:#09060A;" />
	<polygon id="d0063" points="331.875,244.337 327.541,251.843 318.875,251.843 314.541,244.337    318.875,236.832 327.541,236.832  " style="fill:#09060A;" />
	<polygon id="d0065" points="331.942,212.118 327.609,219.623 318.942,219.623 314.609,212.118    318.942,204.612 327.609,204.612  " style="fill:#09060A;" />
	</g>
<g id="VuMark-BrightElements">
	<polygon id="b0000" points="136.441,227.704 132.107,235.21 123.441,235.21 119.107,227.704    123.441,220.199 132.107,220.199  " style="fill:#FFFFFF;" />
	<polygon id="b0003" points="163.807,227.631 159.473,235.137 150.807,235.137 146.473,227.631    150.807,220.126 159.473,220.126  " style="fill:#FFFFFF;" />
	<polygon id="b0004" points="163.807,243.868 159.473,251.374 150.807,251.374 146.473,243.868    150.807,236.362 159.473,236.362  " style="fill:#FFFFFF;" />
	<polygon id="b0005" points="177.807,219.895 173.473,227.401 164.807,227.401 160.473,219.895    164.807,212.39 173.473,212.39  " style="fill:#FFFFFF;" />
	<polygon id="b0008" points="191.885,212.575 187.552,220.08 178.885,220.08 174.552,212.575    178.885,205.069 187.552,205.069  " style="fill:#FFFFFF;" />
	<polygon id="b0009" points="191.807,228.548 187.473,236.054 178.807,236.054 174.473,228.548    178.807,221.043 187.473,221.043  " style="fill:#FFFFFF;" />
	<polygon id="b0013" points="219.807,228.481 215.473,235.986 206.807,235.986 202.473,228.481    206.807,220.975 215.473,220.975  " style="fill:#FFFFFF;" />
	<polygon id="b0014" points="132.547,174.464 128.213,181.97 119.547,181.97 115.213,174.464    119.547,166.959 128.213,166.959  " style="fill:#FFFFFF;" />
	<polygon id="b0016" points="146.88,181.777 142.547,189.283 133.88,189.283 129.547,181.777 133.88,174.272    142.547,174.272  " style="fill:#FFFFFF;" />
	<polygon id="b0017" points="150.473,204.537 146.14,212.043 137.473,212.043 133.14,204.537    137.473,197.032 146.14,197.032  " style="fill:#FFFFFF;" />
	<polygon id="b0019" points="178.557,204.104 174.223,211.61 165.557,211.61 161.223,204.104    165.557,196.599 174.223,196.599  " style="fill:#FFFFFF;" />
	<polygon id="b0021" points="132.547,158.106 128.213,165.612 119.547,165.612 115.213,158.106    119.547,150.6 128.213,150.6  " style="fill:#FFFFFF;" />
	<polygon id="b0022" points="146.88,166.189 142.547,173.695 133.88,173.695 129.547,166.189 133.88,158.683    142.547,158.683  " style="fill:#FFFFFF;" />
	<polygon id="b0024" points="160.88,174.272 156.547,181.777 147.88,181.777 143.547,174.272 147.88,166.766    156.547,166.766  " style="fill:#FFFFFF;" />
	<polygon id="b0025" points="160.88,158.106 156.547,165.612 147.88,165.612 143.547,158.106 147.88,150.6    156.547,150.6  " style="fill:#FFFFFF;" />
	<polygon id="b0026" points="188.921,163.977 184.588,171.482 175.921,171.482 171.588,163.977    175.921,156.471 184.588,156.471  " style="fill:#FFFFFF;" />
<polygon id="b0027" points="189.407,147.877 185.073,155.383 176.407,155.383 172.073,147.877    176.407,140.372 185.073,140.372  " style="fill:#FFFFFF;" />
	<polygon id="b0028" points="202.807,156.473 198.473,163.979 189.807,163.979 185.473,156.473    189.807,148.967 198.473,148.967  " style="fill:#FFFFFF;" />
	<polygon id="b0030" points="205.945,204.537 201.612,212.043 192.945,212.043 188.612,204.537    192.945,197.032 201.612,197.032  " style="fill:#FFFFFF;" />
	<polygon id="b0031" points="216.807,147.877 212.473,155.383 203.807,155.383 199.473,147.877    203.807,140.372 212.473,140.372  " style="fill:#FFFFFF;" />
	<polygon id="b0033" points="219.807,212.562 215.473,220.068 206.807,220.068 202.473,212.562    206.807,205.057 215.473,205.057  " style="fill:#FFFFFF;" />
	<polygon id="b0034" points="220.444,196.534 216.111,204.04 207.444,204.04 203.111,196.534    207.444,189.029 216.111,189.029  " style="fill:#FFFFFF;" />
	<polygon id="b0039" points="261.651,219.895 257.317,227.401 248.651,227.401 244.317,219.895    248.651,212.39 257.317,212.39  " style="fill:#FFFFFF;" />
	<polygon id="b0040" points="261.651,236.687 257.317,244.193 248.651,244.193 244.317,236.687    248.651,229.182 257.317,229.182  " style="fill:#FFFFFF;" />
	<polygon id="b0042" points="233.557,204.104 229.223,211.61 220.557,211.61 216.223,204.104    220.557,196.599 229.223,196.599  " style="fill:#FFFFFF;" />
	<polygon id="b0044" points="247.807,195.877 243.473,203.383 234.807,203.383 230.473,195.877    234.807,188.372 243.473,188.372  " style="fill:#FFFFFF;" />
	<polygon id="b0045" points="247.742,211.466 243.409,218.971 234.742,218.971 230.409,211.466    234.742,203.96 243.409,203.96  " style="fill:#FFFFFF;" />
	<polygon id="b0047" points="262.407,188.372 258.073,195.877 249.407,195.877 245.073,188.372    249.407,180.866 258.073,180.866  " style="fill:#FFFFFF;" />
	<polygon id="b0050" points="289.474,236.484 285.14,243.989 276.474,243.989 272.14,236.484    276.474,228.978 285.14,228.978  " style="fill:#FFFFFF;" />
	<polygon id="b0051" points="290.316,220.86 285.982,228.366 277.316,228.366 272.982,220.86    277.316,213.355 285.982,213.355  " style="fill:#FFFFFF;" />
	<polygon id="b0052" points="303.664,244.385 299.33,251.89 290.664,251.89 286.33,244.385 290.664,236.879    299.33,236.879  " style="fill:#FFFFFF;" />
	<polygon id="b0054" points="318.587,220.511 314.254,228.016 305.587,228.016 301.254,220.511    305.587,213.005 314.254,213.005  " style="fill:#FFFFFF;" />
	<polygon id="b0056" points="276.037,196.534 271.704,204.04 263.037,204.04 258.704,196.534    263.037,189.029 271.704,189.029  " style="fill:#FFFFFF;" />
	<polygon id="b0057" points="290.618,204.712 286.285,212.218 277.618,212.218 273.285,204.712    277.618,197.207 286.285,197.207  " style="fill:#FFFFFF;" />
	<polygon id="b0058" points="289.842,188.564 285.509,196.07 276.842,196.07 272.509,188.564    276.842,181.059 285.509,181.059  " style="fill:#FFFFFF;" />
	<polygon id="b0060" points="304.007,196.534 299.673,204.04 291.007,204.04 286.673,196.534    291.007,189.029 299.673,189.029  " style="fill:#FFFFFF;" />
	<polygon id="b0061" points="318.587,204.537 314.254,212.043 305.587,212.043 301.254,204.537    305.587,197.032 314.254,197.032  " style="fill:#FFFFFF;" />
	<polygon id="b0064" points="331.607,195.877 327.273,203.383 318.607,203.383 314.273,195.877    318.607,188.372 327.273,188.372  " style="fill:#FFFFFF;" />
	<polygon id="b0066" points="331.674,228.548 327.341,236.054 318.674,236.054 314.341,228.548    318.674,221.043 327.341,221.043  " style="fill:#FFFFFF;" />
	<polygon id="b0067" points="345.728,204.006 341.394,211.511 332.728,211.511 328.394,204.006    332.728,196.5 341.394,196.5  " style="fill:#FFFFFF;" />
	<polygon id="b0068" points="346.031,220.86 341.697,228.366 333.031,228.366 328.697,220.86    333.031,213.355 341.697,213.355  " style="fill:#FFFFFF;" />
	<polygon id="b0069" points="346.031,236.484 341.697,243.989 333.031,243.989 328.697,236.484    333.031,228.978 341.697,228.978  " style="fill:#FFFFFF;" />
	</g>
<g id="VuMark-Background">
	<path d="M279.134,297.717c-0.486,1.404-20.318-6.212-49.743-11.282c-13.64-2.35-25.724-4.432-41.971-4.029   c-17.445,0.433-30.092,3.493-48.966,8.059c-12.713,3.076-37.57,9.729-37.152,12.088c0.384,2.165,21.422-2.751,51.919-1.612   c10.369,0.387,20.653,1.43,55.183,8.059c60.968,11.703,54.841,13.429,73.06,15.163c20.384,1.94,53.393,5.082,88.604-11.133   c14.188-6.534,37.586-16.747,52.075-41.1c16.854-28.327,12.605-60.164,15.419-60.037c2.025,0.091,4.938,16.616,2.014,35.078   c-3.568,22.529-14.094,36.99-12.485,38.001c1.299,0.817,8.744-8.256,14.499-18.374c1.439-2.531,7.362-13.196,11.68-30.902   c0.827-3.391,4.6-19.363,4.444-41.76c-0.075-10.769-0.152-21.908-3.638-35.913c-5.267-21.157-15.285-36.688-22.554-45.936   c-7.808-9.933-20.158-25.645-42.288-33.825c-25.917-9.58-48.772-2.742-58.801,0.418c-9.453,2.978-25.233,8.165-38.664,22.968   c-16.956,18.688-25.007,47.014-18.526,52.2c3.303,2.643,10.056-0.984,12.888-2.506c10.881-5.844,17.534-19.654,19.332-23.385   c1.717-3.563,2.718-6.392,4.027-6.264c2.002,0.196,3.988,7.232,3.222,13.781c-0.62,5.301-2.784,8.056-1.611,9.187   c1.333,1.286,5.504-0.948,8.055-2.923c1.416-1.096,5.548-4.602,8.055-12.11c2.967-8.884,0.517-13.963,3.625-15.869   c1.799-1.103,4.287-0.178,9.263,1.67c5.077,1.886,8.666,4.12,10.069,5.011c1.037,0.659,9.597,6.131,14.902,11.275   c20.767,20.141,19.805,62.585,18.929,69.321c-0.863,6.633-1.822,9.864-1.822,9.864c-0.985,3.317-1.839,4.825-1.4,5.169   c0.916,0.717,6.4-4.454,10.471-10.022c5.174-7.077,7.3-13.748,8.86-18.792c3.499-11.308,3.836-21.089,4.027-27.979   c0.11-3.96-0.21-7.081,0-7.099c0.44-0.039,2.545,13.486,2.9,24.61c0.211,6.608,0.736,31.198-11.223,53.898   c-14.18,26.916-39.044,38.133-47.846,41.955c-55.661,24.163-116.32-6.607-117.797-1.515l28.898,17.746L279.134,297.717z" style="fill:#C13C80;" />
</g>
</svg>