<?xml version='1.0' encoding='UTF-8'?>
<svg xmlns="http://www.w3.org/2000/svg" style="enable-background:new 0 0 525 375;" version="1.1" viewBox="0 0 525 375" x="0px" y="0px" xml:space="preserve">
<g id="VuMark-ClearSpace">
	<rect height="375" style="fill:#BD2784;" width="525" />
</g>
<g id="VuMark-Border">
	<polyline points="501.118,126.908 431.02,30.444 217.223,30.444 158.808,88.647 77.028,95.603    25.623,191.722 22.118,261.404 77.028,353 422.842,348.362 501.118,248.65  " style="fill:#FFFFFF;" />
</g>
<g id="VuMark-DarkElements">
	<polygon id="d0000" points="136.477,227.742 132.144,235.247 123.477,235.247 119.144,227.742    123.477,220.236 132.144,220.236  " style="fill:#09060A;" />
	<polygon id="d0002" points="150.444,235.752 146.111,243.258 137.444,243.258 133.111,235.752    137.444,228.246 146.111,228.246  " style="fill:#09060A;" />
	<polygon id="d0006" points="178.075,235.784 173.741,243.289 165.075,243.289 160.741,235.784    165.075,228.278 173.741,228.278  " style="fill:#09060A;" />
	<polygon id="d0008" points="191.922,212.613 187.589,220.118 178.922,220.118 174.589,212.613    178.922,205.107 187.589,205.107  " style="fill:#09060A;" />
	<polygon id="d0010" points="206.075,236.686 201.741,244.191 193.075,244.191 188.741,236.686    193.075,229.18 201.741,229.18  " style="fill:#09060A;" />
	<polygon id="d0011" points="206.213,220.564 201.88,228.069 193.213,228.069 188.88,220.564    193.213,213.058 201.88,213.058  " style="fill:#09060A;" />
	<polygon id="d0019" points="178.469,204.114 174.136,211.62 165.469,211.62 161.136,204.114    165.469,196.609 174.136,196.609  " style="fill:#09060A;" />
	<polygon id="d0020" points="192.05,196.139 187.717,203.645 179.05,203.645 174.717,196.139 179.05,188.633    187.717,188.633  " style="fill:#09060A;" />
	<polygon id="d0021" points="132.815,158.104 128.481,165.61 119.815,165.61 115.481,158.104    119.815,150.599 128.481,150.599  " style="fill:#09060A;" />
	<polygon id="d0022" points="147.148,166.187 142.815,173.693 134.148,173.693 129.815,166.187    134.148,158.682 142.815,158.682  " style="fill:#09060A;" />
	<polygon id="d0023" points="147.148,150.021 142.815,157.527 134.148,157.527 129.815,150.021    134.148,142.516 142.815,142.516  " style="fill:#09060A;" />
	<polygon id="d0024" points="161.148,174.27 156.815,181.776 148.148,181.776 143.815,174.27    148.148,166.765 156.815,166.765  " style="fill:#09060A;" />
	<polygon id="d0026" points="188.921,163.977 184.588,171.482 175.921,171.482 171.588,163.977    175.921,156.471 184.588,156.471  " style="fill:#09060A;" />
<polygon id="d0027" points="189.675,147.875 185.341,155.381 176.675,155.381 172.341,147.875    176.675,140.37 185.341,140.37  " style="fill:#09060A;" />
	<polygon id="d0028" points="203.075,156.471 198.741,163.977 190.075,163.977 185.741,156.471    190.075,148.966 198.741,148.966  " style="fill:#09060A;" />
	<polygon id="d0033" points="220.075,212.561 215.741,220.066 207.075,220.066 202.741,212.561    207.075,205.055 215.741,205.055  " style="fill:#09060A;" />
	<polygon id="d0035" points="234.547,235.927 230.214,243.432 221.547,243.432 217.214,235.927    221.547,228.421 230.214,228.421  " style="fill:#09060A;" />
	<polygon id="d0036" points="234.547,219.783 230.214,227.289 221.547,227.289 217.214,219.783    221.547,212.278 230.214,212.278  " style="fill:#09060A;" />
	<polygon id="d0037" points="248.01,243.912 243.677,251.418 235.01,251.418 230.677,243.912 235.01,236.406    243.677,236.406  " style="fill:#09060A;" />
	<polygon id="d0038" points="248.213,227.806 243.88,235.312 235.213,235.312 230.88,227.806    235.213,220.301 243.88,220.301  " style="fill:#09060A;" />
	<polygon id="d0041" points="275.45,227.703 271.117,235.208 262.45,235.208 258.117,227.703 262.45,220.197    271.117,220.197  " style="fill:#09060A;" />
	<polygon id="d0050" points="289.742,236.482 285.408,243.988 276.742,243.988 272.408,236.482    276.742,228.977 285.408,228.977  " style="fill:#09060A;" />
	<polygon id="d0051" points="289.808,220.858 285.474,228.364 276.808,228.364 272.474,220.858    276.808,213.353 285.474,213.353  " style="fill:#09060A;" />
	<polygon id="d0054" points="318.08,220.509 313.746,228.014 305.08,228.014 300.746,220.509 305.08,213.003    313.746,213.003  " style="fill:#09060A;" />
	<polygon id="d0055" points="318.08,236.482 313.746,243.988 305.08,243.988 300.746,236.482 305.08,228.977    313.746,228.977  " style="fill:#09060A;" />
	<polygon id="d0061" points="318.08,204.536 313.746,212.041 305.08,212.041 300.746,204.536 305.08,197.03    313.746,197.03  " style="fill:#09060A;" />
	<polygon id="d0062" points="318.08,188.562 313.746,196.068 305.08,196.068 300.746,188.562 305.08,181.057    313.746,181.057  " style="fill:#09060A;" />
	<polygon id="d0064" points="331.875,195.875 327.541,203.381 318.875,203.381 314.541,195.875    318.875,188.37 327.541,188.37  " style="fill:#09060A;" />
	</g>
<g id="VuMark-BrightElements">
	<polygon id="b0001" points="149.966,219.895 145.633,227.401 136.966,227.401 132.633,219.895    136.966,212.39 145.633,212.39  " style="fill:#FFFFFF;" />
	<polygon id="b0003" points="163.807,227.631 159.473,235.137 150.807,235.137 146.473,227.631    150.807,220.126 159.473,220.126  " style="fill:#FFFFFF;" />
	<polygon id="b0004" points="163.807,243.868 159.473,251.374 150.807,251.374 146.473,243.868    150.807,236.362 159.473,236.362  " style="fill:#FFFFFF;" />
	<polygon id="b0005" points="177.807,219.895 173.473,227.401 164.807,227.401 160.473,219.895    164.807,212.39 173.473,212.39  " style="fill:#FFFFFF;" />
	<polygon id="b0007" points="191.541,243.914 187.207,251.419 178.541,251.419 174.207,243.914    178.541,236.408 187.207,236.408  " style="fill:#FFFFFF;" />
	<polygon id="b0009" points="191.807,228.548 187.473,236.054 178.807,236.054 174.473,228.548    178.807,221.043 187.473,221.043  " style="fill:#FFFFFF;" />
	<polygon id="b0012" points="219.807,244.054 215.473,251.559 206.807,251.559 202.473,244.054    206.807,236.548 215.473,236.548  " style="fill:#FFFFFF;" />
	<polygon id="b0013" points="219.807,228.481 215.473,235.986 206.807,235.986 202.473,228.481    206.807,220.975 215.473,220.975  " style="fill:#FFFFFF;" />
	<polygon id="b0014" points="132.547,174.464 128.213,181.97 119.547,181.97 115.213,174.464    119.547,166.959 128.213,166.959  " style="fill:#FFFFFF;" />
	<polygon id="b0015" points="136.407,211.466 132.074,218.971 123.407,218.971 119.074,211.466    123.407,203.96 132.074,203.96  " style="fill:#FFFFFF;" />
	<polygon id="b0016" points="146.88,181.777 142.547,189.283 133.88,189.283 129.547,181.777 133.88,174.272    142.547,174.272  " style="fill:#FFFFFF;" />
	<polygon id="b0017" points="150.473,204.537 146.14,212.043 137.473,212.043 133.14,204.537    137.473,197.032 146.14,197.032  " style="fill:#FFFFFF;" />
	<polygon id="b0018" points="164.398,212.119 160.065,219.625 151.398,219.625 147.065,212.119    151.398,204.614 160.065,204.614  " style="fill:#FFFFFF;" />
	<polygon id="b0025" points="160.88,158.106 156.547,165.612 147.88,165.612 143.547,158.106 147.88,150.6    156.547,150.6  " style="fill:#FFFFFF;" />
	<polygon id="b0029" points="205.945,188.519 201.612,196.025 192.945,196.025 188.612,188.519    192.945,181.014 201.612,181.014  " style="fill:#FFFFFF;" />
	<polygon id="b0030" points="205.945,204.537 201.612,212.043 192.945,212.043 188.612,204.537    192.945,197.032 201.612,197.032  " style="fill:#FFFFFF;" />
	<polygon id="b0031" points="216.807,147.877 212.473,155.383 203.807,155.383 199.473,147.877    203.807,140.372 212.473,140.372  " style="fill:#FFFFFF;" />
	<polygon id="b0032" points="218.415,164.177 214.082,171.683 205.415,171.683 201.082,164.177    205.415,156.672 214.082,156.672  " style="fill:#FFFFFF;" />
	<polygon id="b0034" points="220.444,196.534 216.111,204.04 207.444,204.04 203.111,196.534    207.444,189.029 216.111,189.029  " style="fill:#FFFFFF;" />
	<polygon id="b0039" points="261.651,219.895 257.317,227.401 248.651,227.401 244.317,219.895    248.651,212.39 257.317,212.39  " style="fill:#FFFFFF;" />
	<polygon id="b0040" points="261.651,236.687 257.317,244.193 248.651,244.193 244.317,236.687    248.651,229.182 257.317,229.182  " style="fill:#FFFFFF;" />
	<polygon id="b0042" points="233.557,204.104 229.223,211.61 220.557,211.61 216.223,204.104    220.557,196.599 229.223,196.599  " style="fill:#FFFFFF;" />
	<polygon id="b0043" points="233.807,188.372 229.473,195.877 220.807,195.877 216.473,188.372    220.807,180.866 229.473,180.866  " style="fill:#FFFFFF;" />
	<polygon id="b0044" points="247.807,195.877 243.473,203.383 234.807,203.383 230.473,195.877    234.807,188.372 243.473,188.372  " style="fill:#FFFFFF;" />
	<polygon id="b0045" points="247.742,211.466 243.409,218.971 234.742,218.971 230.409,211.466    234.742,203.96 243.409,203.96  " style="fill:#FFFFFF;" />
	<polygon id="b0046" points="261.651,203.982 257.317,211.488 248.651,211.488 244.317,203.982    248.651,196.477 257.317,196.477  " style="fill:#FFFFFF;" />
	<polygon id="b0047" points="262.407,188.372 258.073,195.877 249.407,195.877 245.073,188.372    249.407,180.866 258.073,180.866  " style="fill:#FFFFFF;" />
	<polygon id="b0048" points="275.517,212.119 271.184,219.625 262.517,219.625 258.184,212.119    262.517,204.614 271.184,204.614  " style="fill:#FFFFFF;" />
	<polygon id="b0049" points="275.789,244.385 271.456,251.89 262.789,251.89 258.456,244.385    262.789,236.879 271.456,236.879  " style="fill:#FFFFFF;" />
	<polygon id="b0052" points="303.664,244.385 299.33,251.89 290.664,251.89 286.33,244.385 290.664,236.879    299.33,236.879  " style="fill:#FFFFFF;" />
	<polygon id="b0053" points="304.782,228.481 300.449,235.986 291.782,235.986 287.449,228.481    291.782,220.975 300.449,220.975  " style="fill:#FFFFFF;" />
	<polygon id="b0056" points="276.037,196.534 271.704,204.04 263.037,204.04 258.704,196.534    263.037,189.029 271.704,189.029  " style="fill:#FFFFFF;" />
	<polygon id="b0057" points="290.618,204.712 286.285,212.218 277.618,212.218 273.285,204.712    277.618,197.207 286.285,197.207  " style="fill:#FFFFFF;" />
	<polygon id="b0058" points="289.842,188.564 285.509,196.07 276.842,196.07 272.509,188.564    276.842,181.059 285.509,181.059  " style="fill:#FFFFFF;" />
	<polygon id="b0059" points="304.587,212.758 300.253,220.264 291.587,220.264 287.253,212.758    291.587,205.253 300.253,205.253  " style="fill:#FFFFFF;" />
	<polygon id="b0060" points="304.007,196.534 299.673,204.04 291.007,204.04 286.673,196.534    291.007,189.029 299.673,189.029  " style="fill:#FFFFFF;" />
	<polygon id="b0063" points="331.607,244.339 327.273,251.845 318.607,251.845 314.273,244.339    318.607,236.834 327.273,236.834  " style="fill:#FFFFFF;" />
	<polygon id="b0065" points="332.45,212.119 328.117,219.625 319.45,219.625 315.117,212.119 319.45,204.614    328.117,204.614  " style="fill:#FFFFFF;" />
	<polygon id="b0066" points="331.674,228.548 327.341,236.054 318.674,236.054 314.341,228.548    318.674,221.043 327.341,221.043  " style="fill:#FFFFFF;" />
	<polygon id="b0067" points="345.728,204.006 341.394,211.511 332.728,211.511 328.394,204.006    332.728,196.5 341.394,196.5  " style="fill:#FFFFFF;" />
	<polygon id="b0068" points="346.031,220.86 341.697,228.366 333.031,228.366 328.697,220.86    333.031,213.355 341.697,213.355  " style="fill:#FFFFFF;" />
	<polygon id="b0069" points="346.031,236.484 341.697,243.989 333.031,243.989 328.697,236.484    333.031,228.978 341.697,228.978  " style="fill:#FFFFFF;" />
	</g>
<g id="VuMark-Background">
	<path d="M279.134,297.717c-0.486,1.404-20.318-6.212-49.743-11.282c-13.64-2.35-25.724-4.432-41.971-4.029   c-17.445,0.433-30.092,3.493-48.966,8.059c-12.713,3.076-37.57,9.729-37.152,12.088c0.384,2.165,21.422-2.751,51.919-1.612   c10.369,0.387,20.653,1.43,55.183,8.059c60.968,11.703,54.841,13.429,73.06,15.163c20.384,1.94,53.393,5.082,88.604-11.133   c14.188-6.534,37.586-16.747,52.075-41.1c16.854-28.327,12.605-60.164,15.419-60.037c2.025,0.091,4.938,16.616,2.014,35.078   c-3.568,22.529-14.094,36.99-12.485,38.001c1.299,0.817,8.744-8.256,14.499-18.374c1.439-2.531,7.362-13.196,11.68-30.902   c0.827-3.391,4.6-19.363,4.444-41.76c-0.075-10.769-0.152-21.908-3.638-35.913c-5.267-21.157-15.285-36.688-22.554-45.936   c-7.808-9.933-20.158-25.645-42.288-33.825c-25.917-9.58-48.772-2.742-58.801,0.418c-9.453,2.978-25.233,8.165-38.664,22.968   c-16.956,18.688-25.007,47.014-18.526,52.2c3.303,2.643,10.056-0.984,12.888-2.506c10.881-5.844,17.534-19.654,19.332-23.385   c1.717-3.563,2.718-6.392,4.027-6.264c2.002,0.196,3.988,7.232,3.222,13.781c-0.62,5.301-2.784,8.056-1.611,9.187   c1.333,1.286,5.504-0.948,8.055-2.923c1.416-1.096,5.548-4.602,8.055-12.11c2.967-8.884,0.517-13.963,3.625-15.869   c1.799-1.103,4.287-0.178,9.263,1.67c5.077,1.886,8.666,4.12,10.069,5.011c1.037,0.659,9.597,6.131,14.902,11.275   c20.767,20.141,19.805,62.585,18.929,69.321c-0.863,6.633-1.822,9.864-1.822,9.864c-0.985,3.317-1.839,4.825-1.4,5.169   c0.916,0.717,6.4-4.454,10.471-10.022c5.174-7.077,7.3-13.748,8.86-18.792c3.499-11.308,3.836-21.089,4.027-27.979   c0.11-3.96-0.21-7.081,0-7.099c0.44-0.039,2.545,13.486,2.9,24.61c0.211,6.608,0.736,31.198-11.223,53.898   c-14.18,26.916-39.044,38.133-47.846,41.955c-55.661,24.163-116.32-6.607-117.797-1.515l28.898,17.746L279.134,297.717z" style="fill:#C13C80;" />
</g>
</svg>