<?xml version="1.0" encoding="utf-8"?>
<!-- Generator: Adobe Illustrator 22.1.0, SVG Export Plug-In . SVG Version: 6.00 Build 0)  -->
<svg version="1.1" xmlns="http://www.w3.org/2000/svg" xmlns:xlink="http://www.w3.org/1999/xlink" x="0px" y="0px"
	 viewBox="0 0 525 375" style="enable-background:new 0 0 525 375;" xml:space="preserve">
<g id="VuMark-UserData">
</g>
<g id="VuMark-ClearSpace">
	<rect style="fill:#BD2784;" width="525" height="375"/>
</g>
<g id="VuMark-Border">
	<polyline style="fill:#FFFFFF;" points="501.118,126.908 431.02,30.444 217.223,30.444 158.808,88.647 77.028,95.603 
		25.623,191.722 22.118,261.404 77.028,353 422.842,348.362 501.118,248.65 	"/>
</g>
<g id="VuMark-Origin">
	
		<circle id="VuMark_Origin_Locator" style="fill:none;stroke:#BA007C;stroke-width:0.75;stroke-miterlimit:10;" cx="265" cy="200" r="10"/>
</g>
<g id="VuMark-Contour">
	<polygon id="contour" style="fill:none;stroke:#BA007C;stroke-miterlimit:10;" points="158.808,88.647 217.223,30.444 
		431.02,30.444 501.118,126.908 501.118,248.65 422.842,348.362 77.028,353 22.118,261.404 25.623,191.722 77.028,95.603 	"/>
</g>
<g id="VuMark-AsymmetryMarker">
</g>
<g id="VuMark-Feedback">
	
		<circle id="c0014" style="fill-rule:evenodd;clip-rule:evenodd;fill:none;stroke:#BA007C;stroke-width:0.75;stroke-miterlimit:10;" cx="124.148" cy="174.463" r="7.875"/>
	
		<circle id="c0021" style="fill-rule:evenodd;clip-rule:evenodd;fill:none;stroke:#BA007C;stroke-width:0.75;stroke-miterlimit:10;" cx="124.148" cy="158.104" r="7.875"/>
	
		<circle id="c0015" style="fill-rule:evenodd;clip-rule:evenodd;fill:none;stroke:#BA007C;stroke-width:0.75;stroke-miterlimit:10;" cx="127.777" cy="211.503" r="7.875"/>
	
		<circle id="c0000" style="fill-rule:evenodd;clip-rule:evenodd;fill:none;stroke:#BA007C;stroke-width:0.75;stroke-miterlimit:10;" cx="127.811" cy="227.742" r="7.875"/>
	
		<circle id="c0016" style="fill-rule:evenodd;clip-rule:evenodd;fill:none;stroke:#BA007C;stroke-width:0.75;stroke-miterlimit:10;" cx="138.481" cy="181.776" r="7.875"/>
	
		<circle id="c0022" style="fill-rule:evenodd;clip-rule:evenodd;fill:none;stroke:#BA007C;stroke-width:0.75;stroke-miterlimit:10;" cx="138.481" cy="166.187" r="7.875"/>
	
		<circle id="c0023" style="fill-rule:evenodd;clip-rule:evenodd;fill:none;stroke:#BA007C;stroke-width:0.75;stroke-miterlimit:10;" cx="138.481" cy="150.021" r="7.875"/>
	
		<circle id="c0001" style="fill-rule:evenodd;clip-rule:evenodd;fill:none;stroke:#BA007C;stroke-width:0.75;stroke-miterlimit:10;" cx="141.336" cy="219.933" r="7.875"/>
	
		<circle id="c0002" style="fill-rule:evenodd;clip-rule:evenodd;fill:none;stroke:#BA007C;stroke-width:0.75;stroke-miterlimit:10;" cx="141.777" cy="235.752" r="7.875"/>
	
		<circle id="c0017" style="fill-rule:evenodd;clip-rule:evenodd;fill:none;stroke:#BA007C;stroke-width:0.75;stroke-miterlimit:10;" cx="141.843" cy="204.575" r="7.875"/>
	
		<circle id="c0024" style="fill-rule:evenodd;clip-rule:evenodd;fill:none;stroke:#BA007C;stroke-width:0.75;stroke-miterlimit:10;" cx="152.481" cy="174.27" r="7.875"/>
	
		<circle id="c0025" style="fill-rule:evenodd;clip-rule:evenodd;fill:none;stroke:#BA007C;stroke-width:0.75;stroke-miterlimit:10;" cx="152.481" cy="158.104" r="7.875"/>
	
		<circle id="c0003" style="fill-rule:evenodd;clip-rule:evenodd;fill:none;stroke:#BA007C;stroke-width:0.75;stroke-miterlimit:10;" cx="155.177" cy="227.669" r="7.875"/>
	
		<circle id="c0004" style="fill-rule:evenodd;clip-rule:evenodd;fill:none;stroke:#BA007C;stroke-width:0.75;stroke-miterlimit:10;" cx="155.408" cy="243.866" r="7.875"/>
	
		<circle id="c0018" style="fill-rule:evenodd;clip-rule:evenodd;fill:none;stroke:#BA007C;stroke-width:0.75;stroke-miterlimit:10;" cx="155.644" cy="212.129" r="7.875"/>
	
		<circle id="c0005" style="fill-rule:evenodd;clip-rule:evenodd;fill:none;stroke:#BA007C;stroke-width:0.75;stroke-miterlimit:10;" cx="169.177" cy="219.933" r="7.875"/>
	
		<circle id="c0006" style="fill-rule:evenodd;clip-rule:evenodd;fill:none;stroke:#BA007C;stroke-width:0.75;stroke-miterlimit:10;" cx="169.408" cy="235.784" r="7.875"/>
	
		<circle id="c0019" style="fill-rule:evenodd;clip-rule:evenodd;fill:none;stroke:#BA007C;stroke-width:0.75;stroke-miterlimit:10;" cx="169.803" cy="204.114" r="7.875"/>
	
		<circle id="c0026" style="fill-rule:evenodd;clip-rule:evenodd;fill:none;stroke:#BA007C;stroke-width:0.75;stroke-miterlimit:10;" cx="180.255" cy="163.977" r="7.875"/>
	
		<circle id="c0027" style="fill-rule:evenodd;clip-rule:evenodd;fill:none;stroke:#BA007C;stroke-width:0.75;stroke-miterlimit:10;" cx="181.008" cy="147.875" r="7.875"/>
	
		<circle id="c0007" style="fill-rule:evenodd;clip-rule:evenodd;fill:none;stroke:#BA007C;stroke-width:0.75;stroke-miterlimit:10;" cx="183.142" cy="243.912" r="7.875"/>
	
		<circle id="c0008" style="fill-rule:evenodd;clip-rule:evenodd;fill:none;stroke:#BA007C;stroke-width:0.75;stroke-miterlimit:10;" cx="183.255" cy="212.613" r="7.875"/>
	
		<circle id="c0020" style="fill-rule:evenodd;clip-rule:evenodd;fill:none;stroke:#BA007C;stroke-width:0.75;stroke-miterlimit:10;" cx="183.383" cy="196.139" r="7.875"/>
	
		<circle id="c0009" style="fill-rule:evenodd;clip-rule:evenodd;fill:none;stroke:#BA007C;stroke-width:0.75;stroke-miterlimit:10;" cx="183.408" cy="228.546" r="7.875"/>
	
		<circle id="c0028" style="fill-rule:evenodd;clip-rule:evenodd;fill:none;stroke:#BA007C;stroke-width:0.75;stroke-miterlimit:10;" cx="194.408" cy="156.471" r="7.875"/>
	
		<circle id="c0029" style="fill-rule:evenodd;clip-rule:evenodd;fill:none;stroke:#BA007C;stroke-width:0.75;stroke-miterlimit:10;" cx="197.191" cy="188.529" r="7.875"/>
	
		<circle id="c0030" style="fill-rule:evenodd;clip-rule:evenodd;fill:none;stroke:#BA007C;stroke-width:0.75;stroke-miterlimit:10;" cx="197.315" cy="204.575" r="7.875"/>
	
		<circle id="c0010" style="fill-rule:evenodd;clip-rule:evenodd;fill:none;stroke:#BA007C;stroke-width:0.75;stroke-miterlimit:10;" cx="197.408" cy="236.686" r="7.875"/>
	
		<circle id="c0011" style="fill-rule:evenodd;clip-rule:evenodd;fill:none;stroke:#BA007C;stroke-width:0.75;stroke-miterlimit:10;" cx="197.547" cy="220.564" r="7.875"/>
	
		<circle id="c0031" style="fill-rule:evenodd;clip-rule:evenodd;fill:none;stroke:#BA007C;stroke-width:0.75;stroke-miterlimit:10;" cx="208.408" cy="147.875" r="7.875"/>
	
		<circle id="c0032" style="fill-rule:evenodd;clip-rule:evenodd;fill:none;stroke:#BA007C;stroke-width:0.75;stroke-miterlimit:10;" cx="209.608" cy="163.977" r="7.875"/>
	
		<circle id="c0013" style="fill-rule:evenodd;clip-rule:evenodd;fill:none;stroke:#BA007C;stroke-width:0.75;stroke-miterlimit:10;" cx="211.408" cy="228.479" r="7.875"/>
	
		<circle id="c0033" style="fill-rule:evenodd;clip-rule:evenodd;fill:none;stroke:#BA007C;stroke-width:0.75;stroke-miterlimit:10;" cx="211.408" cy="212.561" r="7.875"/>
	
		<circle id="c0012" style="fill-rule:evenodd;clip-rule:evenodd;fill:none;stroke:#BA007C;stroke-width:0.75;stroke-miterlimit:10;" cx="211.408" cy="244.052" r="7.875"/>
	
		<circle id="c0034" style="fill-rule:evenodd;clip-rule:evenodd;fill:none;stroke:#BA007C;stroke-width:0.75;stroke-miterlimit:10;" cx="211.702" cy="196.5" r="7.875"/>
	
		<circle id="c0042" style="fill-rule:evenodd;clip-rule:evenodd;fill:none;stroke:#BA007C;stroke-width:0.75;stroke-miterlimit:10;" cx="224.89" cy="203.981" r="7.875"/>
	
		<circle id="c0043" style="fill-rule:evenodd;clip-rule:evenodd;fill:none;stroke:#BA007C;stroke-width:0.75;stroke-miterlimit:10;" cx="225.088" cy="188.37" r="7.875"/>
	
		<circle id="c0035" style="fill-rule:evenodd;clip-rule:evenodd;fill:none;stroke:#BA007C;stroke-width:0.75;stroke-miterlimit:10;" cx="225.881" cy="235.927" r="7.875"/>
	
		<circle id="c0036" style="fill-rule:evenodd;clip-rule:evenodd;fill:none;stroke:#BA007C;stroke-width:0.75;stroke-miterlimit:10;" cx="225.881" cy="219.783" r="7.875"/>
	
		<circle id="c0044" style="fill-rule:evenodd;clip-rule:evenodd;fill:none;stroke:#BA007C;stroke-width:0.75;stroke-miterlimit:10;" cx="239.076" cy="195.875" r="7.875"/>
	
		<circle id="c0037" style="fill-rule:evenodd;clip-rule:evenodd;fill:none;stroke:#BA007C;stroke-width:0.75;stroke-miterlimit:10;" cx="239.344" cy="243.912" r="7.875"/>
	
		<circle id="c0045" style="fill-rule:evenodd;clip-rule:evenodd;fill:none;stroke:#BA007C;stroke-width:0.75;stroke-miterlimit:10;" cx="239.344" cy="211.464" r="7.875"/>
	
		<circle id="c0038" style="fill-rule:evenodd;clip-rule:evenodd;fill:none;stroke:#BA007C;stroke-width:0.75;stroke-miterlimit:10;" cx="239.547" cy="227.806" r="7.875"/>
	
		<circle id="c0046" style="fill-rule:evenodd;clip-rule:evenodd;fill:none;stroke:#BA007C;stroke-width:0.75;stroke-miterlimit:10;" cx="253.252" cy="203.981" r="7.875"/>
	
		<circle id="c0039" style="fill-rule:evenodd;clip-rule:evenodd;fill:none;stroke:#BA007C;stroke-width:0.75;stroke-miterlimit:10;" cx="253.252" cy="219.894" r="7.875"/>
	
		<circle id="c0040" style="fill-rule:evenodd;clip-rule:evenodd;fill:none;stroke:#BA007C;stroke-width:0.75;stroke-miterlimit:10;" cx="253.252" cy="236.686" r="7.875"/>
	
		<circle id="c0047" style="fill-rule:evenodd;clip-rule:evenodd;fill:none;stroke:#BA007C;stroke-width:0.75;stroke-miterlimit:10;" cx="253.743" cy="188.37" r="7.875"/>
	
		<circle id="c0041" style="fill-rule:evenodd;clip-rule:evenodd;fill:none;stroke:#BA007C;stroke-width:0.75;stroke-miterlimit:10;" cx="266.783" cy="227.703" r="7.875"/>
	
		<circle id="c0048" style="fill-rule:evenodd;clip-rule:evenodd;fill:none;stroke:#BA007C;stroke-width:0.75;stroke-miterlimit:10;" cx="267.119" cy="212.118" r="7.875"/>
	
		<circle id="c0049" style="fill-rule:evenodd;clip-rule:evenodd;fill:none;stroke:#BA007C;stroke-width:0.75;stroke-miterlimit:10;" cx="267.391" cy="244.383" r="7.875"/>
	
		<circle id="c0056" style="fill-rule:evenodd;clip-rule:evenodd;fill:none;stroke:#BA007C;stroke-width:0.75;stroke-miterlimit:10;" cx="267.639" cy="196.533" r="7.875"/>
	
		<circle id="c0050" style="fill-rule:evenodd;clip-rule:evenodd;fill:none;stroke:#BA007C;stroke-width:0.75;stroke-miterlimit:10;" cx="281.075" cy="236.482" r="7.875"/>
	
		<circle id="c0051" style="fill-rule:evenodd;clip-rule:evenodd;fill:none;stroke:#BA007C;stroke-width:0.75;stroke-miterlimit:10;" cx="281.141" cy="220.858" r="7.875"/>
	
		<circle id="c0057" style="fill-rule:evenodd;clip-rule:evenodd;fill:none;stroke:#BA007C;stroke-width:0.75;stroke-miterlimit:10;" cx="281.444" cy="204.71" r="7.875"/>
	
		<circle id="c0058" style="fill-rule:evenodd;clip-rule:evenodd;fill:none;stroke:#BA007C;stroke-width:0.75;stroke-miterlimit:10;" cx="281.444" cy="188.562" r="7.875"/>
	
		<circle id="c0052" style="fill-rule:evenodd;clip-rule:evenodd;fill:none;stroke:#BA007C;stroke-width:0.75;stroke-miterlimit:10;" cx="295.265" cy="244.383" r="7.875"/>
	
		<circle id="c0059" style="fill-rule:evenodd;clip-rule:evenodd;fill:none;stroke:#BA007C;stroke-width:0.75;stroke-miterlimit:10;" cx="295.412" cy="212.756" r="7.875"/>
	
		<circle id="c0053" style="fill-rule:evenodd;clip-rule:evenodd;fill:none;stroke:#BA007C;stroke-width:0.75;stroke-miterlimit:10;" cx="295.608" cy="228.479" r="7.875"/>
	
		<circle id="c0060" style="fill-rule:evenodd;clip-rule:evenodd;fill:none;stroke:#BA007C;stroke-width:0.75;stroke-miterlimit:10;" cx="295.608" cy="196.533" r="7.875"/>
	
		<circle id="c0054" style="fill-rule:evenodd;clip-rule:evenodd;fill:none;stroke:#BA007C;stroke-width:0.75;stroke-miterlimit:10;" cx="309.413" cy="220.509" r="7.875"/>
	
		<circle id="c0061" style="fill-rule:evenodd;clip-rule:evenodd;fill:none;stroke:#BA007C;stroke-width:0.75;stroke-miterlimit:10;" cx="309.413" cy="204.536" r="7.875"/>
	
		<circle id="c0055" style="fill-rule:evenodd;clip-rule:evenodd;fill:none;stroke:#BA007C;stroke-width:0.75;stroke-miterlimit:10;" cx="309.413" cy="236.482" r="7.875"/>
	
		<circle id="c0062" style="fill-rule:evenodd;clip-rule:evenodd;fill:none;stroke:#BA007C;stroke-width:0.75;stroke-miterlimit:10;" cx="309.413" cy="188.562" r="7.875"/>
	
		<circle id="c0063" style="fill-rule:evenodd;clip-rule:evenodd;fill:none;stroke:#BA007C;stroke-width:0.75;stroke-miterlimit:10;" cx="323.208" cy="244.337" r="7.875"/>
	
		<circle id="c0064" style="fill-rule:evenodd;clip-rule:evenodd;fill:none;stroke:#BA007C;stroke-width:0.75;stroke-miterlimit:10;" cx="323.208" cy="195.875" r="7.875"/>
	
		<circle id="c0066" style="fill-rule:evenodd;clip-rule:evenodd;fill:none;stroke:#BA007C;stroke-width:0.75;stroke-miterlimit:10;" cx="323.276" cy="228.546" r="7.875"/>
	
		<circle id="c0065" style="fill-rule:evenodd;clip-rule:evenodd;fill:none;stroke:#BA007C;stroke-width:0.75;stroke-miterlimit:10;" cx="323.276" cy="212.118" r="7.875"/>
	
		<circle id="c0067" style="fill-rule:evenodd;clip-rule:evenodd;fill:none;stroke:#BA007C;stroke-width:0.75;stroke-miterlimit:10;" cx="337.329" cy="204.004" r="7.875"/>
	
		<circle id="c0068" style="fill-rule:evenodd;clip-rule:evenodd;fill:none;stroke:#BA007C;stroke-width:0.75;stroke-miterlimit:10;" cx="337.632" cy="220.858" r="7.875"/>
	
		<circle id="c0069" style="fill-rule:evenodd;clip-rule:evenodd;fill:none;stroke:#BA007C;stroke-width:0.75;stroke-miterlimit:10;" cx="337.632" cy="236.482" r="7.875"/>
	<polygon style="fill:none;stroke:#BA007C;stroke-miterlimit:10;" points="22.118,261.404 25.623,191.722 77.028,95.604 
		158.808,88.647 217.223,30.444 431.021,30.444 501.118,126.908 501.118,248.65 422.843,348.362 77.028,353 	"/>
	<path id="MinimumContourClearSpace" style="opacity:0.5;fill-rule:evenodd;clip-rule:evenodd;fill:#BA007C;" d="M6.147,265.396
		l3.923-77.989L67.172,80.635l84.583-7.195l58.959-58.746h228.33l77.823,107.096v132.304L430.582,364.01l-362.404,4.86
		L6.147,265.396z M38.089,257.413l3.087-61.375l45.708-85.466l78.977-6.718l57.869-57.66h199.267l62.372,85.833v111.181
		l-70.265,89.508L85.877,337.13L38.089,257.413z"/>
</g>
<g id="VuMark-DarkElements">
	<polygon id="d0057" style="fill:#09060A;" points="290.11,204.71 285.777,212.216 277.11,212.216 272.777,204.71 277.11,197.205 
		285.777,197.205 	"/>
	<polygon id="d0061" style="fill:#09060A;" points="318.08,204.536 313.746,212.041 305.08,212.041 300.746,204.536 305.08,197.03 
		313.746,197.03 	"/>
	<polygon id="d0059" style="fill:#09060A;" points="304.079,212.756 299.746,220.262 291.079,220.262 286.746,212.756 
		291.079,205.251 299.746,205.251 	"/>
	<polygon id="d0065" style="fill:#09060A;" points="331.942,212.118 327.609,219.623 318.942,219.623 314.609,212.118 
		318.942,204.612 327.609,204.612 	"/>
	<polygon id="d0034" style="fill:#09060A;" points="220.368,196.5 216.035,204.006 207.368,204.006 203.035,196.5 207.368,188.994 
		216.035,188.994 	"/>
	<polygon id="d0054" style="fill:#09060A;" points="318.08,220.509 313.746,228.014 305.08,228.014 300.746,220.509 305.08,213.003 
		313.746,213.003 	"/>
	<polygon id="d0051" style="fill:#09060A;" points="289.808,220.858 285.474,228.364 276.808,228.364 272.474,220.858 
		276.808,213.353 285.474,213.353 	"/>
	<polygon id="d0053" style="fill:#09060A;" points="304.275,228.479 299.941,235.985 291.275,235.985 286.941,228.479 
		291.275,220.974 299.941,220.974 	"/>
	<polygon id="d0035" style="fill:#09060A;" points="234.547,235.927 230.214,243.432 221.547,243.432 217.214,235.927 
		221.547,228.421 230.214,228.421 	"/>
	<polygon id="d0052" style="fill:#09060A;" points="303.932,244.383 299.598,251.888 290.932,251.888 286.598,244.383 
		290.932,236.877 299.598,236.877 	"/>
	<polygon id="d0050" style="fill:#09060A;" points="289.742,236.482 285.408,243.988 276.742,243.988 272.408,236.482 
		276.742,228.977 285.408,228.977 	"/>
	<polygon id="d0041" style="fill:#09060A;" points="275.45,227.703 271.117,235.208 262.45,235.208 258.117,227.703 262.45,220.197 
		271.117,220.197 	"/>
	<polygon id="d0000" style="fill:#09060A;" points="136.477,227.742 132.144,235.247 123.477,235.247 119.144,227.742 
		123.477,220.236 132.144,220.236 	"/>
	<polygon id="d0001" style="fill:#09060A;" points="150.003,219.933 145.669,227.439 137.003,227.439 132.669,219.933 
		137.003,212.428 145.669,212.428 	"/>
	<polygon id="d0023" style="fill:#09060A;" points="147.148,150.021 142.815,157.527 134.148,157.527 129.815,150.021 
		134.148,142.516 142.815,142.516 	"/>
	<polygon id="d0002" style="fill:#09060A;" points="150.444,235.752 146.111,243.258 137.444,243.258 133.111,235.752 
		137.444,228.246 146.111,228.246 	"/>
	<polygon id="d0018" style="fill:#09060A;" points="164.311,212.129 159.977,219.635 151.311,219.635 146.977,212.129 
		151.311,204.624 159.977,204.624 	"/>
	<polygon id="d0037" style="fill:#09060A;" points="248.01,243.912 243.677,251.418 235.01,251.418 230.677,243.912 235.01,236.406 
		243.677,236.406 	"/>
	<polygon id="d0028" style="fill:#09060A;" points="203.075,156.471 198.741,163.977 190.075,163.977 185.741,156.471 
		190.075,148.966 198.741,148.966 	"/>
	<polygon id="d0027" style="fill:#09060A;" points="189.675,147.875 185.341,155.381 176.675,155.381 172.341,147.875 
		176.675,140.37 185.341,140.37 	"/>
	<polygon id="d0025" style="fill:#09060A;" points="161.148,158.104 156.815,165.61 148.148,165.61 143.815,158.104 
		148.148,150.599 156.815,150.599 	"/>
	<polygon id="d0021" style="fill:#09060A;" points="132.815,158.104 128.481,165.61 119.815,165.61 115.481,158.104 
		119.815,150.599 128.481,150.599 	"/>
	<polygon id="d0031" style="fill:#09060A;" points="217.075,147.875 212.741,155.381 204.075,155.381 199.741,147.875 
		204.075,140.37 212.741,140.37 	"/>
	<polygon id="d0022" style="fill:#09060A;" points="147.148,166.187 142.815,173.693 134.148,173.693 129.815,166.187 
		134.148,158.682 142.815,158.682 	"/>
	<polygon id="d0020" style="fill:#09060A;" points="192.05,196.139 187.717,203.645 179.05,203.645 174.717,196.139 179.05,188.633 
		187.717,188.633 	"/>
	<polygon id="d0019" style="fill:#09060A;" points="178.469,204.114 174.136,211.62 165.469,211.62 161.136,204.114 
		165.469,196.609 174.136,196.609 	"/>
	<polygon id="d0049" style="fill:#09060A;" points="276.057,244.383 271.724,251.888 263.057,251.888 258.724,244.383 
		263.057,236.877 271.724,236.877 	"/>
	<polygon id="d0029" style="fill:#09060A;" points="205.858,188.529 201.525,196.035 192.858,196.035 188.525,188.529 
		192.858,181.023 201.525,181.023 	"/>
	<polygon id="d0015" style="fill:#09060A;" points="136.444,211.503 132.111,219.009 123.444,219.009 119.111,211.503 
		123.444,203.998 132.111,203.998 	"/>
	<polygon id="d0040" style="fill:#09060A;" points="261.919,236.686 257.585,244.191 248.919,244.191 244.585,236.686 
		248.919,229.18 257.585,229.18 	"/>
	<polygon id="d0012" style="fill:#09060A;" points="220.075,244.052 215.741,251.558 207.075,251.558 202.741,244.052 
		207.075,236.547 215.741,236.547 	"/>
	<polygon id="d0024" style="fill:#09060A;" points="161.148,174.27 156.815,181.776 148.148,181.776 143.815,174.27 
		148.148,166.765 156.815,166.765 	"/>
	<polygon id="d0014" style="fill:#09060A;" points="132.815,174.463 128.481,181.968 119.815,181.968 115.481,174.463 
		119.815,166.957 128.481,166.957 	"/>
	<polygon id="d0016" style="fill:#09060A;" points="147.148,181.776 142.815,189.281 134.148,189.281 129.815,181.776 
		134.148,174.27 142.815,174.27 	"/>
	<polygon id="d0006" style="fill:#09060A;" points="178.075,235.784 173.741,243.289 165.075,243.289 160.741,235.784 
		165.075,228.278 173.741,228.278 	"/>
	<polygon id="d0003" style="fill:#09060A;" points="163.843,227.669 159.51,235.175 150.843,235.175 146.51,227.669 
		150.843,220.164 159.51,220.164 	"/>
	<polygon id="d0017" style="fill:#09060A;" points="150.51,204.575 146.177,212.081 137.51,212.081 133.177,204.575 137.51,197.069 
		146.177,197.069 	"/>
	<polygon id="d0043" style="fill:#09060A;" points="233.755,188.37 229.421,195.875 220.755,195.875 216.421,188.37 
		220.755,180.864 229.421,180.864 	"/>
	<polygon id="d0046" style="fill:#09060A;" points="261.919,203.981 257.585,211.486 248.919,211.486 244.585,203.981 
		248.919,196.475 257.585,196.475 	"/>
	<polygon id="d0030" style="fill:#09060A;" points="205.982,204.575 201.649,212.081 192.982,212.081 188.649,204.575 
		192.982,197.069 201.649,197.069 	"/>
	<polygon id="d0008" style="fill:#09060A;" points="191.922,212.613 187.589,220.118 178.922,220.118 174.589,212.613 
		178.922,205.107 187.589,205.107 	"/>
	<polygon id="d0047" style="fill:#09060A;" points="262.41,188.37 258.076,195.875 249.41,195.875 245.076,188.37 249.41,180.864 
		258.076,180.864 	"/>
	<polygon id="d0056" style="fill:#09060A;" points="276.305,196.533 271.972,204.038 263.305,204.038 258.972,196.533 
		263.305,189.027 271.972,189.027 	"/>
	<polygon id="d0058" style="fill:#09060A;" points="290.11,188.562 285.777,196.068 277.11,196.068 272.777,188.562 277.11,181.057 
		285.777,181.057 	"/>
	<polygon id="d0060" style="fill:#09060A;" points="304.275,196.533 299.941,204.038 291.275,204.038 286.941,196.533 
		291.275,189.027 299.941,189.027 	"/>
	<polygon id="d0062" style="fill:#09060A;" points="318.08,188.562 313.746,196.068 305.08,196.068 300.746,188.562 305.08,181.057 
		313.746,181.057 	"/>
	<polygon id="d0064" style="fill:#09060A;" points="331.875,195.875 327.541,203.381 318.875,203.381 314.541,195.875 
		318.875,188.37 327.541,188.37 	"/>
	<polygon id="d0067" style="fill:#09060A;" points="345.996,204.004 341.662,211.509 332.996,211.509 328.662,204.004 
		332.996,196.498 341.662,196.498 	"/>
	<polygon id="d0044" style="fill:#09060A;" points="247.742,195.875 243.409,203.381 234.742,203.381 230.409,195.875 
		234.742,188.37 243.409,188.37 	"/>
	<polygon id="d0055" style="fill:#09060A;" points="318.08,236.482 313.746,243.988 305.08,243.988 300.746,236.482 305.08,228.977 
		313.746,228.977 	"/>
	<polygon id="d0066" style="fill:#09060A;" points="331.942,228.546 327.609,236.052 318.942,236.052 314.609,228.546 
		318.942,221.041 327.609,221.041 	"/>
	<polygon id="d0068" style="fill:#09060A;" points="346.299,220.858 341.965,228.364 333.299,228.364 328.965,220.858 
		333.299,213.353 341.965,213.353 	"/>
	<polygon id="d0069" style="fill:#09060A;" points="346.299,236.482 341.965,243.988 333.299,243.988 328.965,236.482 
		333.299,228.977 341.965,228.977 	"/>
	<polygon id="d0063" style="fill:#09060A;" points="331.875,244.337 327.541,251.843 318.875,251.843 314.541,244.337 
		318.875,236.832 327.541,236.832 	"/>
	<polygon id="d0045" style="fill:#09060A;" points="248.01,211.464 243.677,218.969 235.01,218.969 230.677,211.464 235.01,203.958 
		243.677,203.958 	"/>
	<polygon id="d0042" style="fill:#09060A;" points="233.557,203.981 229.223,211.486 220.557,211.486 216.223,203.981 
		220.557,196.475 229.223,196.475 	"/>
	<polygon id="d0036" style="fill:#09060A;" points="234.547,219.783 230.214,227.289 221.547,227.289 217.214,219.783 
		221.547,212.278 230.214,212.278 	"/>
	<polygon id="d0013" style="fill:#09060A;" points="220.075,228.479 215.741,235.985 207.075,235.985 202.741,228.479 
		207.075,220.974 215.741,220.974 	"/>
	<polygon id="d0033" style="fill:#09060A;" points="220.075,212.561 215.741,220.066 207.075,220.066 202.741,212.561 
		207.075,205.055 215.741,205.055 	"/>
	<polygon id="d0011" style="fill:#09060A;" points="206.213,220.564 201.88,228.069 193.213,228.069 188.88,220.564 
		193.213,213.058 201.88,213.058 	"/>
	<polygon id="d0009" style="fill:#09060A;" points="192.075,228.546 187.741,236.052 179.075,236.052 174.741,228.546 
		179.075,221.041 187.741,221.041 	"/>
	<polygon id="d0010" style="fill:#09060A;" points="206.075,236.686 201.741,244.191 193.075,244.191 188.741,236.686 
		193.075,229.18 201.741,229.18 	"/>
	<polygon id="d0007" style="fill:#09060A;" points="191.809,243.912 187.475,251.418 178.809,251.418 174.475,243.912 
		178.809,236.406 187.475,236.406 	"/>
	<polygon id="d0005" style="fill:#09060A;" points="177.843,219.933 173.51,227.439 164.843,227.439 160.51,219.933 
		164.843,212.428 173.51,212.428 	"/>
	<polygon id="d0048" style="fill:#09060A;" points="275.785,212.118 271.452,219.623 262.785,219.623 258.452,212.118 
		262.785,204.612 271.452,204.612 	"/>
	<polygon id="d0039" style="fill:#09060A;" points="261.919,219.894 257.585,227.399 248.919,227.399 244.585,219.894 
		248.919,212.388 257.585,212.388 	"/>
	<polygon id="d0038" style="fill:#09060A;" points="248.213,227.806 243.88,235.312 235.213,235.312 230.88,227.806 
		235.213,220.301 243.88,220.301 	"/>
	<polygon id="d0004" style="fill:#09060A;" points="164.075,243.866 159.741,251.372 151.075,251.372 146.741,243.866 
		151.075,236.361 159.741,236.361 	"/>
	<polygon id="d0032" style="fill:#09060A;" points="218.275,163.977 213.941,171.482 205.275,171.482 200.941,163.977 
		205.275,156.471 213.941,156.471 	"/>
	<polygon id="d0026" style="fill:#09060A;" points="188.921,163.977 184.588,171.482 175.921,171.482 171.588,163.977 
		175.921,156.471 184.588,156.471 	"/>
</g>
<g id="VuMark-BrightElements">
	<polygon id="b0035" style="fill:#FFFFFF;" points="234.279,235.928 229.946,243.434 221.279,243.434 216.946,235.928 
		221.279,228.423 229.946,228.423 	"/>
	<polygon id="b0052" style="fill:#FFFFFF;" points="303.664,244.385 299.33,251.89 290.664,251.89 286.33,244.385 290.664,236.879 
		299.33,236.879 	"/>
	<polygon id="b0050" style="fill:#FFFFFF;" points="289.474,236.484 285.14,243.989 276.474,243.989 272.14,236.484 
		276.474,228.978 285.14,228.978 	"/>
	<polygon id="b0041" style="fill:#FFFFFF;" points="275.182,227.704 270.849,235.21 262.182,235.21 257.849,227.704 
		262.182,220.199 270.849,220.199 	"/>
	<polygon id="b0000" style="fill:#FFFFFF;" points="136.441,227.704 132.107,235.21 123.441,235.21 119.107,227.704 
		123.441,220.199 132.107,220.199 	"/>
	<polygon id="b0001" style="fill:#FFFFFF;" points="149.966,219.895 145.633,227.401 136.966,227.401 132.633,219.895 
		136.966,212.39 145.633,212.39 	"/>
	<polygon id="b0023" style="fill:#FFFFFF;" points="146.88,150.023 142.547,157.529 133.88,157.529 129.547,150.023 133.88,142.518 
		142.547,142.518 	"/>
	<polygon id="b0002" style="fill:#FFFFFF;" points="150.407,235.714 146.074,243.22 137.407,243.22 133.074,235.714 
		137.407,228.209 146.074,228.209 	"/>
	<polygon id="b0018" style="fill:#FFFFFF;" points="164.398,212.119 160.065,219.625 151.398,219.625 147.065,212.119 
		151.398,204.614 160.065,204.614 	"/>
	<polygon id="b0037" style="fill:#FFFFFF;" points="247.742,243.914 243.409,251.419 234.742,251.419 230.409,243.914 
		234.742,236.408 243.409,236.408 	"/>
	<polygon id="b0028" style="fill:#FFFFFF;" points="202.807,156.473 198.473,163.979 189.807,163.979 185.473,156.473 
		189.807,148.967 198.473,148.967 	"/>
	<polygon id="b0027" style="fill:#FFFFFF;" points="189.407,147.877 185.073,155.383 176.407,155.383 172.073,147.877 
		176.407,140.372 185.073,140.372 	"/>
	<polygon id="b0025" style="fill:#FFFFFF;" points="160.88,158.106 156.547,165.612 147.88,165.612 143.547,158.106 147.88,150.6 
		156.547,150.6 	"/>
	<polygon id="b0021" style="fill:#FFFFFF;" points="132.547,158.106 128.213,165.612 119.547,165.612 115.213,158.106 
		119.547,150.6 128.213,150.6 	"/>
	<polygon id="b0031" style="fill:#FFFFFF;" points="216.807,147.877 212.473,155.383 203.807,155.383 199.473,147.877 
		203.807,140.372 212.473,140.372 	"/>
	<polygon id="b0022" style="fill:#FFFFFF;" points="146.88,166.189 142.547,173.695 133.88,173.695 129.547,166.189 133.88,158.683 
		142.547,158.683 	"/>
	<polygon id="b0020" style="fill:#FFFFFF;" points="192.137,196.129 187.804,203.635 179.137,203.635 174.804,196.129 
		179.137,188.624 187.804,188.624 	"/>
	<polygon id="b0019" style="fill:#FFFFFF;" points="178.557,204.104 174.223,211.61 165.557,211.61 161.223,204.104 
		165.557,196.599 174.223,196.599 	"/>
	<polygon id="b0049" style="fill:#FFFFFF;" points="275.789,244.385 271.456,251.89 262.789,251.89 258.456,244.385 
		262.789,236.879 271.456,236.879 	"/>
	<polygon id="b0029" style="fill:#FFFFFF;" points="205.945,188.519 201.612,196.025 192.945,196.025 188.612,188.519 
		192.945,181.014 201.612,181.014 	"/>
	<polygon id="b0015" style="fill:#FFFFFF;" points="136.407,211.466 132.074,218.971 123.407,218.971 119.074,211.466 
		123.407,203.96 132.074,203.96 	"/>
	<polygon id="b0040" style="fill:#FFFFFF;" points="261.651,236.687 257.317,244.193 248.651,244.193 244.317,236.687 
		248.651,229.182 257.317,229.182 	"/>
	<polygon id="b0012" style="fill:#FFFFFF;" points="219.807,244.054 215.473,251.559 206.807,251.559 202.473,244.054 
		206.807,236.548 215.473,236.548 	"/>
	<polygon id="b0024" style="fill:#FFFFFF;" points="160.88,174.272 156.547,181.777 147.88,181.777 143.547,174.272 147.88,166.766 
		156.547,166.766 	"/>
	<polygon id="b0014" style="fill:#FFFFFF;" points="132.547,174.464 128.213,181.97 119.547,181.97 115.213,174.464 
		119.547,166.959 128.213,166.959 	"/>
	<polygon id="b0016" style="fill:#FFFFFF;" points="146.88,181.777 142.547,189.283 133.88,189.283 129.547,181.777 133.88,174.272 
		142.547,174.272 	"/>
	<polygon id="b0006" style="fill:#FFFFFF;" points="177.807,235.785 173.473,243.291 164.807,243.291 160.473,235.785 
		164.807,228.28 173.473,228.28 	"/>
	<polygon id="b0003" style="fill:#FFFFFF;" points="163.807,227.631 159.473,235.137 150.807,235.137 146.473,227.631 
		150.807,220.126 159.473,220.126 	"/>
	<polygon id="b0017" style="fill:#FFFFFF;" points="150.473,204.537 146.14,212.043 137.473,212.043 133.14,204.537 
		137.473,197.032 146.14,197.032 	"/>
	<polygon id="b0043" style="fill:#FFFFFF;" points="233.807,188.372 229.473,195.877 220.807,195.877 216.473,188.372 
		220.807,180.866 229.473,180.866 	"/>
	<polygon id="b0046" style="fill:#FFFFFF;" points="261.651,203.982 257.317,211.488 248.651,211.488 244.317,203.982 
		248.651,196.477 257.317,196.477 	"/>
	<polygon id="b0030" style="fill:#FFFFFF;" points="205.945,204.537 201.612,212.043 192.945,212.043 188.612,204.537 
		192.945,197.032 201.612,197.032 	"/>
	<polygon id="b0008" style="fill:#FFFFFF;" points="191.885,212.575 187.552,220.08 178.885,220.08 174.552,212.575 
		178.885,205.069 187.552,205.069 	"/>
	<polygon id="b0047" style="fill:#FFFFFF;" points="262.407,188.372 258.073,195.877 249.407,195.877 245.073,188.372 
		249.407,180.866 258.073,180.866 	"/>
	<polygon id="b0056" style="fill:#FFFFFF;" points="276.037,196.534 271.704,204.04 263.037,204.04 258.704,196.534 
		263.037,189.029 271.704,189.029 	"/>
	<polygon id="b0058" style="fill:#FFFFFF;" points="289.842,188.564 285.509,196.07 276.842,196.07 272.509,188.564 
		276.842,181.059 285.509,181.059 	"/>
	<polygon id="b0060" style="fill:#FFFFFF;" points="304.007,196.534 299.673,204.04 291.007,204.04 286.673,196.534 
		291.007,189.029 299.673,189.029 	"/>
	<polygon id="b0062" style="fill:#FFFFFF;" points="317.812,188.564 313.478,196.07 304.812,196.07 300.478,188.564 
		304.812,181.059 313.478,181.059 	"/>
	<polygon id="b0064" style="fill:#FFFFFF;" points="331.607,195.877 327.273,203.383 318.607,203.383 314.273,195.877 
		318.607,188.372 327.273,188.372 	"/>
	<polygon id="b0067" style="fill:#FFFFFF;" points="345.728,204.006 341.394,211.511 332.728,211.511 328.394,204.006 
		332.728,196.5 341.394,196.5 	"/>
	<polygon id="b0044" style="fill:#FFFFFF;" points="247.807,195.877 243.473,203.383 234.807,203.383 230.473,195.877 
		234.807,188.372 243.473,188.372 	"/>
	<polygon id="b0055" style="fill:#FFFFFF;" points="317.812,236.484 313.478,243.989 304.812,243.989 300.478,236.484 
		304.812,228.978 313.478,228.978 	"/>
	<polygon id="b0066" style="fill:#FFFFFF;" points="331.674,228.548 327.341,236.054 318.674,236.054 314.341,228.548 
		318.674,221.043 327.341,221.043 	"/>
	<polygon id="b0068" style="fill:#FFFFFF;" points="346.031,220.86 341.697,228.366 333.031,228.366 328.697,220.86 
		333.031,213.355 341.697,213.355 	"/>
	<polygon id="b0069" style="fill:#FFFFFF;" points="346.031,236.484 341.697,243.989 333.031,243.989 328.697,236.484 
		333.031,228.978 341.697,228.978 	"/>
	<polygon id="b0063" style="fill:#FFFFFF;" points="331.607,244.339 327.273,251.845 318.607,251.845 314.273,244.339 
		318.607,236.834 327.273,236.834 	"/>
	<polygon id="b0045" style="fill:#FFFFFF;" points="247.742,211.466 243.409,218.971 234.742,218.971 230.409,211.466 
		234.742,203.96 243.409,203.96 	"/>
	<polygon id="b0042" style="fill:#FFFFFF;" points="233.557,204.104 229.223,211.61 220.557,211.61 216.223,204.104 
		220.557,196.599 229.223,196.599 	"/>
	<polygon id="b0036" style="fill:#FFFFFF;" points="234.279,219.785 229.946,227.291 221.279,227.291 216.946,219.785 
		221.279,212.28 229.946,212.28 	"/>
	<polygon id="b0013" style="fill:#FFFFFF;" points="219.807,228.481 215.473,235.986 206.807,235.986 202.473,228.481 
		206.807,220.975 215.473,220.975 	"/>
	<polygon id="b0033" style="fill:#FFFFFF;" points="219.807,212.562 215.473,220.068 206.807,220.068 202.473,212.562 
		206.807,205.057 215.473,205.057 	"/>
	<polygon id="b0011" style="fill:#FFFFFF;" points="205.945,220.565 201.612,228.071 192.945,228.071 188.612,220.565 
		192.945,213.06 201.612,213.06 	"/>
	<polygon id="b0009" style="fill:#FFFFFF;" points="191.807,228.548 187.473,236.054 178.807,236.054 174.473,228.548 
		178.807,221.043 187.473,221.043 	"/>
	<polygon id="b0010" style="fill:#FFFFFF;" points="205.807,236.687 201.473,244.193 192.807,244.193 188.473,236.687 
		192.807,229.182 201.473,229.182 	"/>
	<polygon id="b0007" style="fill:#FFFFFF;" points="191.541,243.914 187.207,251.419 178.541,251.419 174.207,243.914 
		178.541,236.408 187.207,236.408 	"/>
	<polygon id="b0005" style="fill:#FFFFFF;" points="177.807,219.895 173.473,227.401 164.807,227.401 160.473,219.895 
		164.807,212.39 173.473,212.39 	"/>
	<polygon id="b0048" style="fill:#FFFFFF;" points="275.517,212.119 271.184,219.625 262.517,219.625 258.184,212.119 
		262.517,204.614 271.184,204.614 	"/>
	<polygon id="b0039" style="fill:#FFFFFF;" points="261.651,219.895 257.317,227.401 248.651,227.401 244.317,219.895 
		248.651,212.39 257.317,212.39 	"/>
	<polygon id="b0038" style="fill:#FFFFFF;" points="247.945,227.808 243.612,235.314 234.945,235.314 230.612,227.808 
		234.945,220.303 243.612,220.303 	"/>
	<polygon id="b0004" style="fill:#FFFFFF;" points="163.807,243.868 159.473,251.374 150.807,251.374 146.473,243.868 
		150.807,236.362 159.473,236.362 	"/>
	<polygon id="b0057" style="fill:#FFFFFF;" points="290.618,204.712 286.285,212.218 277.618,212.218 273.285,204.712 
		277.618,197.207 286.285,197.207 	"/>
	<polygon id="b0061" style="fill:#FFFFFF;" points="318.587,204.537 314.254,212.043 305.587,212.043 301.254,204.537 
		305.587,197.032 314.254,197.032 	"/>
	<polygon id="b0059" style="fill:#FFFFFF;" points="304.587,212.758 300.253,220.264 291.587,220.264 287.253,212.758 
		291.587,205.253 300.253,205.253 	"/>
	<polygon id="b0065" style="fill:#FFFFFF;" points="332.45,212.119 328.117,219.625 319.45,219.625 315.117,212.119 319.45,204.614 
		328.117,204.614 	"/>
	<polygon id="b0034" style="fill:#FFFFFF;" points="220.444,196.534 216.111,204.04 207.444,204.04 203.111,196.534 
		207.444,189.029 216.111,189.029 	"/>
	<polygon id="b0054" style="fill:#FFFFFF;" points="318.587,220.511 314.254,228.016 305.587,228.016 301.254,220.511 
		305.587,213.005 314.254,213.005 	"/>
	<polygon id="b0051" style="fill:#FFFFFF;" points="290.316,220.86 285.982,228.366 277.316,228.366 272.982,220.86 
		277.316,213.355 285.982,213.355 	"/>
	<polygon id="b0053" style="fill:#FFFFFF;" points="304.782,228.481 300.449,235.986 291.782,235.986 287.449,228.481 
		291.782,220.975 300.449,220.975 	"/>
	<polygon id="b0032" style="fill:#FFFFFF;" points="218.415,164.177 214.082,171.683 205.415,171.683 201.082,164.177 
		205.415,156.672 214.082,156.672 	"/>
	<polygon id="b0026" style="fill:#FFFFFF;" points="188.921,163.977 184.588,171.482 175.921,171.482 171.588,163.977 
		175.921,156.471 184.588,156.471 	"/>
</g>
<g id="VuMark-Background">
	<path style="fill:#C13C80;" d="M279.134,297.717c-0.486,1.404-20.318-6.212-49.743-11.282c-13.64-2.35-25.724-4.432-41.971-4.029
		c-17.445,0.433-30.092,3.493-48.966,8.059c-12.713,3.076-37.57,9.729-37.152,12.088c0.384,2.165,21.422-2.751,51.919-1.612
		c10.369,0.387,20.653,1.43,55.183,8.059c60.968,11.703,54.841,13.429,73.06,15.163c20.384,1.94,53.393,5.082,88.604-11.133
		c14.188-6.534,37.586-16.747,52.075-41.1c16.854-28.327,12.605-60.164,15.419-60.037c2.025,0.091,4.938,16.616,2.014,35.078
		c-3.568,22.529-14.094,36.99-12.485,38.001c1.299,0.817,8.744-8.256,14.499-18.374c1.439-2.531,7.362-13.196,11.68-30.902
		c0.827-3.391,4.6-19.363,4.444-41.76c-0.075-10.769-0.152-21.908-3.638-35.913c-5.267-21.157-15.285-36.688-22.554-45.936
		c-7.808-9.933-20.158-25.645-42.288-33.825c-25.917-9.58-48.772-2.742-58.801,0.418c-9.453,2.978-25.233,8.165-38.664,22.968
		c-16.956,18.688-25.007,47.014-18.526,52.2c3.303,2.643,10.056-0.984,12.888-2.506c10.881-5.844,17.534-19.654,19.332-23.385
		c1.717-3.563,2.718-6.392,4.027-6.264c2.002,0.196,3.988,7.232,3.222,13.781c-0.62,5.301-2.784,8.056-1.611,9.187
		c1.333,1.286,5.504-0.948,8.055-2.923c1.416-1.096,5.548-4.602,8.055-12.11c2.967-8.884,0.517-13.963,3.625-15.869
		c1.799-1.103,4.287-0.178,9.263,1.67c5.077,1.886,8.666,4.12,10.069,5.011c1.037,0.659,9.597,6.131,14.902,11.275
		c20.767,20.141,19.805,62.585,18.929,69.321c-0.863,6.633-1.822,9.864-1.822,9.864c-0.985,3.317-1.839,4.825-1.4,5.169
		c0.916,0.717,6.4-4.454,10.471-10.022c5.174-7.077,7.3-13.748,8.86-18.792c3.499-11.308,3.836-21.089,4.027-27.979
		c0.11-3.96-0.21-7.081,0-7.099c0.44-0.039,2.545,13.486,2.9,24.61c0.211,6.608,0.736,31.198-11.223,53.898
		c-14.18,26.916-39.044,38.133-47.846,41.955c-55.661,24.163-116.32-6.607-117.797-1.515l28.898,17.746L279.134,297.717z"/>
</g>
<g id="VuMark-Description">
	<g id="VuMark:Omwtt">
		<path d="M-363.313-130.956l-2.65-8.084h1.139l1.259,3.982c0.336,1.091,0.636,2.074,0.864,3.022h0.024
			c0.228-0.936,0.552-1.955,0.923-3.011l1.367-3.994h1.116l-2.891,8.084H-363.313z"/>
		<path d="M-353.787-132.551c0,0.611,0.012,1.139,0.048,1.595h-0.936l-0.06-0.947h-0.024c-0.264,0.468-0.887,1.079-1.919,1.079
			c-0.911,0-2.003-0.516-2.003-2.543v-3.394h1.056v3.202c0,1.104,0.348,1.859,1.295,1.859c0.708,0,1.199-0.492,1.391-0.972
			c0.06-0.145,0.096-0.336,0.096-0.54v-3.55h1.056V-132.551z"/>
		<path d="M-345.185-134.506c-0.06-1.128-0.132-2.495-0.132-3.49h-0.024c-0.288,0.936-0.612,1.955-1.02,3.07l-1.427,3.922h-0.792
			l-1.319-3.85c-0.384-1.151-0.695-2.184-0.923-3.143h-0.024c-0.024,1.008-0.084,2.351-0.156,3.574l-0.216,3.466h-0.995l0.563-8.084
			h1.332l1.379,3.91c0.336,0.995,0.6,1.883,0.815,2.723h0.024c0.216-0.815,0.503-1.703,0.863-2.723l1.439-3.91h1.331l0.504,8.084
			h-1.032L-345.185-134.506z"/>
		<path d="M-338.235-132.348c0,0.504,0.024,0.996,0.084,1.392h-0.947l-0.084-0.731h-0.036c-0.324,0.456-0.947,0.863-1.775,0.863
			c-1.175,0-1.775-0.827-1.775-1.667c0-1.403,1.247-2.171,3.49-2.159v-0.119c0-0.468-0.132-1.344-1.319-1.332
			c-0.551,0-1.115,0.156-1.523,0.432l-0.24-0.707c0.479-0.3,1.188-0.504,1.919-0.504c1.775,0,2.207,1.211,2.207,2.362V-132.348z
			 M-339.254-133.918c-1.151-0.024-2.459,0.18-2.459,1.307c0,0.696,0.456,1.008,0.983,1.008c0.768,0,1.259-0.479,1.427-0.972
			c0.036-0.12,0.048-0.24,0.048-0.336V-133.918z"/>
		<path d="M-336.529-134.95c0-0.684-0.012-1.271-0.048-1.811h0.923l0.048,1.151h0.036c0.264-0.779,0.912-1.271,1.619-1.271
			c0.108,0,0.192,0.012,0.288,0.024v0.995c-0.108-0.024-0.216-0.024-0.36-0.024c-0.744,0-1.271,0.552-1.416,1.344
			c-0.024,0.144-0.036,0.324-0.036,0.491v3.095h-1.056V-134.95z"/>
		<path d="M-331.513-134.099h0.024c0.144-0.203,0.336-0.455,0.504-0.659l1.715-2.003h1.259l-2.23,2.387l2.554,3.418h-1.295
			l-1.991-2.782l-0.54,0.6v2.183h-1.043v-8.516h1.043V-134.099z"/>
		<path d="M-327.049-135.802c0-0.443,0.3-0.755,0.708-0.755c0.432,0,0.708,0.312,0.708,0.755c0,0.42-0.276,0.744-0.72,0.744
			C-326.761-135.058-327.049-135.382-327.049-135.802z M-327.049-131.567c0-0.444,0.3-0.756,0.708-0.756
			c0.432,0,0.708,0.312,0.708,0.756c0,0.42-0.276,0.743-0.72,0.743C-326.761-130.824-327.049-131.147-327.049-131.567z"/>
		<path d="M-309.749-135.082c0,2.771-1.691,4.258-3.754,4.258c-2.147,0-3.634-1.667-3.634-4.113c0-2.567,1.583-4.246,3.742-4.246
			C-311.176-139.184-309.749-137.492-309.749-135.082z M-316.034-134.962c0,1.739,0.936,3.286,2.59,3.286
			c1.655,0,2.591-1.523,2.591-3.358c0-1.619-0.839-3.298-2.579-3.298C-315.17-138.332-316.034-136.725-316.034-134.962z"/>
		<path d="M-308.425-135.189c0-0.612-0.024-1.092-0.048-1.571h0.923l0.048,0.947h0.036c0.324-0.552,0.864-1.067,1.835-1.067
			c0.78,0,1.379,0.479,1.631,1.163h0.024c0.18-0.336,0.419-0.575,0.66-0.755c0.348-0.265,0.719-0.408,1.271-0.408
			c0.78,0,1.919,0.504,1.919,2.519v3.406h-1.031v-3.274c0-1.127-0.42-1.787-1.259-1.787c-0.612,0-1.067,0.444-1.259,0.948
			c-0.048,0.155-0.084,0.335-0.084,0.527v3.586h-1.031v-3.479c0-0.923-0.408-1.583-1.211-1.583c-0.648,0-1.14,0.528-1.308,1.056
			c-0.06,0.144-0.084,0.336-0.084,0.516v3.49h-1.031V-135.189z"/>
		<path d="M-298.153-136.761l0.779,2.95c0.156,0.647,0.312,1.247,0.42,1.847h0.036c0.132-0.587,0.324-1.211,0.516-1.835l0.947-2.962
			h0.888l0.899,2.902c0.216,0.695,0.384,1.308,0.516,1.895h0.036c0.096-0.587,0.252-1.199,0.444-1.883l0.828-2.914h1.043
			l-1.871,5.805h-0.959l-0.888-2.771c-0.204-0.647-0.372-1.224-0.516-1.907h-0.024c-0.144,0.696-0.324,1.296-0.528,1.919
			l-0.936,2.759h-0.959l-1.751-5.805H-298.153z"/>
		<path d="M-288.47-138.152v1.392h1.511v0.804h-1.511v3.13c0,0.72,0.204,1.128,0.792,1.128c0.288,0,0.456-0.024,0.611-0.072
			l0.048,0.804c-0.204,0.071-0.528,0.144-0.936,0.144c-0.492,0-0.888-0.168-1.14-0.443c-0.288-0.324-0.408-0.84-0.408-1.523v-3.166
			h-0.899v-0.804h0.899v-1.079L-288.47-138.152z"/>
		<path d="M-284.498-138.152v1.392h1.511v0.804h-1.511v3.13c0,0.72,0.204,1.128,0.792,1.128c0.288,0,0.456-0.024,0.612-0.072
			l0.048,0.804c-0.204,0.071-0.528,0.144-0.936,0.144c-0.492,0-0.888-0.168-1.14-0.443c-0.288-0.324-0.408-0.84-0.408-1.523v-3.166
			h-0.899v-0.804h0.899v-1.079L-284.498-138.152z"/>
	</g>
	<g id="IDtype:string">
		<path d="M-364.045-124.04v8.084h-1.056v-8.084H-364.045z"/>
		<path d="M-362.22-123.92c0.636-0.107,1.391-0.18,2.219-0.18c1.499,0,2.566,0.359,3.274,1.008c0.732,0.659,1.151,1.595,1.151,2.902
			c0,1.319-0.419,2.398-1.163,3.142c-0.768,0.756-2.015,1.164-3.586,1.164c-0.756,0-1.367-0.036-1.895-0.097V-123.92z
			 M-361.177-116.771c0.264,0.036,0.647,0.048,1.055,0.048c2.243,0,3.442-1.247,3.442-3.43c0.012-1.907-1.067-3.119-3.274-3.119
			c-0.54,0-0.947,0.049-1.223,0.108V-116.771z"/>
		<path d="M-352.789-123.152v1.392h1.511v0.804h-1.511v3.13c0,0.72,0.204,1.128,0.792,1.128c0.288,0,0.456-0.024,0.612-0.072
			l0.048,0.804c-0.204,0.071-0.528,0.144-0.936,0.144c-0.492,0-0.888-0.168-1.14-0.443c-0.288-0.324-0.408-0.84-0.408-1.523v-3.166
			h-0.899v-0.804h0.899v-1.079L-352.789-123.152z"/>
		<path d="M-349.597-121.761l1.259,3.43c0.144,0.384,0.288,0.84,0.384,1.188h0.024c0.108-0.348,0.228-0.791,0.372-1.211l1.151-3.406
			h1.115l-1.583,4.138c-0.756,1.991-1.271,2.998-1.991,3.634c-0.527,0.444-1.031,0.624-1.295,0.672l-0.264-0.876
			c0.264-0.084,0.612-0.252,0.924-0.516c0.288-0.228,0.635-0.636,0.887-1.175c0.048-0.108,0.084-0.192,0.084-0.252
			c0-0.061-0.024-0.145-0.084-0.276l-2.135-5.349H-349.597z"/>
		<path d="M-344.329-119.866c0-0.743-0.024-1.343-0.048-1.895h0.936l0.06,0.995h0.024c0.419-0.707,1.115-1.115,2.063-1.115
			c1.416,0,2.471,1.188,2.471,2.938c0,2.087-1.283,3.118-2.65,3.118c-0.768,0-1.439-0.336-1.787-0.911h-0.024v3.154h-1.043V-119.866
			z M-343.286-118.318c0,0.155,0.012,0.3,0.048,0.432c0.192,0.731,0.828,1.235,1.583,1.235c1.115,0,1.763-0.912,1.763-2.243
			c0-1.151-0.611-2.146-1.727-2.146c-0.72,0-1.403,0.504-1.595,1.295c-0.036,0.132-0.072,0.288-0.072,0.42V-118.318z"/>
		<path d="M-336.914-118.667c0.024,1.428,0.923,2.016,1.991,2.016c0.755,0,1.223-0.132,1.607-0.3l0.192,0.755
			c-0.372,0.168-1.019,0.372-1.943,0.372c-1.787,0-2.854-1.188-2.854-2.938s1.032-3.118,2.723-3.118
			c1.907,0,2.399,1.655,2.399,2.723c0,0.216-0.012,0.372-0.036,0.491H-336.914z M-333.819-119.422
			c0.012-0.66-0.276-1.703-1.463-1.703c-1.08,0-1.535,0.972-1.619,1.703H-333.819z"/>
		<path d="M-331.729-120.802c0-0.443,0.3-0.755,0.708-0.755c0.432,0,0.708,0.312,0.708,0.755c0,0.42-0.276,0.744-0.72,0.744
			C-331.441-120.058-331.729-120.382-331.729-120.802z M-331.729-116.567c0-0.444,0.3-0.756,0.708-0.756
			c0.432,0,0.708,0.312,0.708,0.756c0,0.42-0.276,0.743-0.72,0.743C-331.441-115.824-331.729-116.147-331.729-116.567z"/>
		<path d="M-321.518-117.023c0.324,0.191,0.875,0.408,1.403,0.408c0.756,0,1.115-0.372,1.115-0.864c0-0.504-0.3-0.768-1.067-1.055
			c-1.055-0.384-1.547-0.948-1.547-1.644c0-0.936,0.768-1.703,2.003-1.703c0.587,0,1.103,0.156,1.415,0.36l-0.252,0.768
			c-0.228-0.145-0.647-0.349-1.187-0.349c-0.624,0-0.959,0.36-0.959,0.792c0,0.479,0.335,0.695,1.091,0.995
			c0.995,0.372,1.523,0.876,1.523,1.739c0,1.031-0.803,1.751-2.159,1.751c-0.636,0-1.223-0.168-1.631-0.407L-321.518-117.023z"/>
		<path d="M-315.351-123.152v1.392h1.511v0.804h-1.511v3.13c0,0.72,0.204,1.128,0.792,1.128c0.288,0,0.456-0.024,0.612-0.072
			l0.048,0.804c-0.204,0.071-0.528,0.144-0.936,0.144c-0.492,0-0.888-0.168-1.14-0.443c-0.288-0.324-0.408-0.84-0.408-1.523v-3.166
			h-0.899v-0.804h0.899v-1.079L-315.351-123.152z"/>
		<path d="M-312.65-119.95c0-0.684-0.012-1.271-0.048-1.811h0.923l0.048,1.151h0.036c0.264-0.779,0.912-1.271,1.619-1.271
			c0.108,0,0.192,0.012,0.288,0.024v0.995c-0.108-0.024-0.216-0.024-0.36-0.024c-0.744,0-1.271,0.552-1.416,1.344
			c-0.024,0.144-0.036,0.324-0.036,0.491v3.095h-1.056V-119.95z"/>
		<path d="M-307.503-123.392c0,0.359-0.252,0.647-0.671,0.647c-0.384,0-0.636-0.288-0.636-0.647c0-0.36,0.264-0.66,0.66-0.66
			C-307.767-124.052-307.503-123.764-307.503-123.392z M-308.678-115.956v-5.805h1.056v5.805H-308.678z"/>
		<path d="M-305.87-120.189c0-0.612-0.012-1.092-0.048-1.571h0.936l0.06,0.959h0.024c0.288-0.539,0.959-1.079,1.919-1.079
			c0.803,0,2.051,0.479,2.051,2.471v3.454h-1.056v-3.346c0-0.936-0.348-1.716-1.343-1.716c-0.684,0-1.223,0.492-1.415,1.08
			c-0.048,0.132-0.072,0.312-0.072,0.491v3.49h-1.056V-120.189z"/>
		<path d="M-294.245-116.808c0,1.344-0.276,2.146-0.828,2.662c-0.576,0.517-1.391,0.696-2.123,0.696
			c-0.696,0-1.463-0.168-1.931-0.479l0.264-0.816c0.384,0.252,0.984,0.468,1.703,0.468c1.08,0,1.871-0.563,1.871-2.038v-0.636
			h-0.024c-0.312,0.539-0.948,0.971-1.847,0.971c-1.439,0-2.471-1.223-2.471-2.83c0-1.967,1.284-3.07,2.627-3.07
			c1.007,0,1.547,0.516,1.811,0.995h0.024l0.036-0.875h0.936c-0.036,0.407-0.048,0.888-0.048,1.583V-116.808z M-295.301-119.47
			c0-0.181-0.012-0.336-0.06-0.468c-0.192-0.624-0.696-1.128-1.476-1.128c-1.007,0-1.727,0.852-1.727,2.195
			c0,1.139,0.588,2.087,1.715,2.087c0.66,0,1.247-0.408,1.463-1.08c0.06-0.18,0.084-0.384,0.084-0.563V-119.47z"/>
	</g>
	<g id="IDlength:6">
		<path d="M-364.045-109.04v8.084h-1.056v-8.084H-364.045z"/>
		<path d="M-362.22-108.92c0.636-0.107,1.391-0.18,2.219-0.18c1.499,0,2.566,0.359,3.274,1.008c0.732,0.659,1.151,1.595,1.151,2.902
			c0,1.319-0.419,2.398-1.163,3.142c-0.768,0.756-2.015,1.164-3.586,1.164c-0.756,0-1.367-0.036-1.895-0.097V-108.92z
			 M-361.177-101.771c0.264,0.036,0.647,0.048,1.055,0.048c2.243,0,3.442-1.247,3.442-3.43c0.012-1.907-1.067-3.119-3.274-3.119
			c-0.54,0-0.947,0.049-1.223,0.108V-101.771z"/>
		<path d="M-354.265-109.472h1.056v8.516h-1.056V-109.472z"/>
		<path d="M-350.845-103.667c0.024,1.428,0.923,2.016,1.991,2.016c0.755,0,1.223-0.132,1.607-0.3l0.192,0.755
			c-0.372,0.168-1.019,0.372-1.943,0.372c-1.787,0-2.854-1.188-2.854-2.938s1.032-3.118,2.723-3.118
			c1.907,0,2.399,1.655,2.399,2.723c0,0.216-0.012,0.372-0.036,0.491H-350.845z M-347.75-104.422
			c0.012-0.66-0.276-1.703-1.463-1.703c-1.079,0-1.535,0.972-1.619,1.703H-347.75z"/>
		<path d="M-345.421-105.189c0-0.612-0.012-1.092-0.048-1.571h0.936l0.06,0.959h0.024c0.288-0.539,0.959-1.079,1.919-1.079
			c0.803,0,2.051,0.479,2.051,2.471v3.454h-1.056v-3.346c0-0.936-0.348-1.716-1.343-1.716c-0.684,0-1.223,0.492-1.415,1.08
			c-0.048,0.132-0.072,0.312-0.072,0.491v3.49h-1.056V-105.189z"/>
		<path d="M-333.796-101.808c0,1.344-0.276,2.146-0.828,2.662c-0.576,0.517-1.391,0.696-2.123,0.696
			c-0.696,0-1.463-0.168-1.931-0.479l0.264-0.816c0.384,0.252,0.984,0.468,1.703,0.468c1.08,0,1.871-0.563,1.871-2.038v-0.636
			h-0.024c-0.312,0.539-0.948,0.971-1.847,0.971c-1.439,0-2.471-1.223-2.471-2.83c0-1.967,1.284-3.07,2.627-3.07
			c1.007,0,1.547,0.516,1.811,0.995h0.024l0.036-0.875h0.936c-0.036,0.407-0.048,0.888-0.048,1.583V-101.808z M-334.852-104.47
			c0-0.181-0.012-0.336-0.06-0.468c-0.192-0.624-0.696-1.128-1.476-1.128c-1.007,0-1.727,0.852-1.727,2.195
			c0,1.139,0.588,2.087,1.715,2.087c0.66,0,1.247-0.408,1.463-1.08c0.06-0.18,0.084-0.384,0.084-0.563V-104.47z"/>
		<path d="M-330.782-108.152v1.392h1.511v0.804h-1.511v3.13c0,0.72,0.204,1.128,0.792,1.128c0.288,0,0.456-0.024,0.611-0.072
			l0.048,0.804c-0.204,0.071-0.528,0.144-0.936,0.144c-0.492,0-0.888-0.168-1.14-0.443c-0.288-0.324-0.408-0.84-0.408-1.523v-3.166
			h-0.899v-0.804h0.899v-1.079L-330.782-108.152z"/>
		<path d="M-328.081-109.472h1.056v3.635h0.024c0.168-0.301,0.432-0.576,0.755-0.756c0.312-0.18,0.684-0.288,1.08-0.288
			c0.779,0,2.027,0.479,2.027,2.471v3.454h-1.056v-3.334c0-0.936-0.348-1.715-1.343-1.715c-0.684,0-1.211,0.479-1.415,1.043
			c-0.06,0.156-0.072,0.312-0.072,0.504v3.502h-1.056V-109.472z"/>
		<path d="M-321.661-105.802c0-0.443,0.3-0.755,0.708-0.755c0.432,0,0.708,0.312,0.708,0.755c0,0.42-0.276,0.744-0.72,0.744
			C-321.374-105.058-321.661-105.382-321.661-105.802z M-321.661-101.567c0-0.444,0.3-0.756,0.708-0.756
			c0.432,0,0.708,0.312,0.708,0.756c0,0.42-0.276,0.743-0.72,0.743C-321.374-100.824-321.661-101.147-321.661-101.567z"/>
		<path d="M-307.192-108.008c-0.216-0.013-0.492,0.012-0.792,0.06c-1.667,0.264-2.531,1.463-2.71,2.759h0.024
			c0.372-0.504,1.031-0.912,1.895-0.912c1.379,0,2.351,1.008,2.351,2.519c0,1.439-0.972,2.759-2.603,2.759
			c-1.655,0-2.747-1.295-2.747-3.322c0-1.535,0.54-2.746,1.319-3.514c0.647-0.636,1.511-1.031,2.495-1.151
			c0.312-0.048,0.576-0.061,0.768-0.061V-108.008z M-307.492-103.511c0-1.115-0.636-1.787-1.607-1.787
			c-0.636,0-1.235,0.384-1.523,0.96c-0.06,0.12-0.108,0.264-0.108,0.455c0.012,1.283,0.612,2.243,1.727,2.243
			C-308.104-101.64-307.492-102.396-307.492-103.511z"/>
	</g>
	<g id="Elements:70">
		<path d="M-360.915-89.746h-3.13v2.914h3.502v0.876h-4.558v-8.084h4.378v0.876h-3.322v2.555h3.13V-89.746z"/>
		<path d="M-359.221-94.472h1.056v8.516h-1.056V-94.472z"/>
		<path d="M-355.801-88.667c0.024,1.428,0.923,2.016,1.991,2.016c0.755,0,1.223-0.132,1.607-0.3l0.192,0.755
			c-0.372,0.168-1.019,0.372-1.943,0.372c-1.787,0-2.854-1.188-2.854-2.938s1.032-3.118,2.723-3.118
			c1.907,0,2.399,1.655,2.399,2.723c0,0.216-0.012,0.372-0.036,0.491H-355.801z M-352.707-89.422
			c0.012-0.66-0.276-1.703-1.463-1.703c-1.079,0-1.535,0.972-1.619,1.703H-352.707z"/>
		<path d="M-350.377-90.189c0-0.612-0.024-1.092-0.048-1.571h0.923l0.048,0.947h0.036c0.324-0.552,0.864-1.067,1.835-1.067
			c0.78,0,1.379,0.479,1.631,1.163h0.024c0.18-0.336,0.419-0.575,0.66-0.755c0.348-0.265,0.719-0.408,1.271-0.408
			c0.78,0,1.919,0.504,1.919,2.519v3.406h-1.031v-3.274c0-1.127-0.42-1.787-1.259-1.787c-0.612,0-1.067,0.444-1.259,0.948
			c-0.048,0.155-0.084,0.335-0.084,0.527v3.586h-1.032v-3.479c0-0.923-0.408-1.583-1.211-1.583c-0.648,0-1.14,0.528-1.308,1.056
			c-0.06,0.144-0.084,0.336-0.084,0.516v3.49h-1.031V-90.189z"/>
		<path d="M-339.781-88.667c0.024,1.428,0.923,2.016,1.991,2.016c0.755,0,1.223-0.132,1.607-0.3l0.192,0.755
			c-0.372,0.168-1.019,0.372-1.943,0.372c-1.787,0-2.854-1.188-2.854-2.938s1.032-3.118,2.723-3.118
			c1.907,0,2.399,1.655,2.399,2.723c0,0.216-0.012,0.372-0.036,0.491H-339.781z M-336.687-89.422
			c0.012-0.66-0.276-1.703-1.463-1.703c-1.08,0-1.535,0.972-1.619,1.703H-336.687z"/>
		<path d="M-334.357-90.189c0-0.612-0.012-1.092-0.048-1.571h0.936l0.06,0.959h0.024c0.288-0.539,0.959-1.079,1.919-1.079
			c0.803,0,2.051,0.479,2.051,2.471v3.454h-1.056v-3.346c0-0.936-0.348-1.716-1.343-1.716c-0.684,0-1.223,0.492-1.415,1.08
			c-0.048,0.132-0.072,0.312-0.072,0.491v3.49h-1.056V-90.189z"/>
		<path d="M-326.474-93.152v1.392h1.511v0.804h-1.511v3.13c0,0.72,0.204,1.128,0.792,1.128c0.288,0,0.456-0.024,0.612-0.072
			l0.048,0.804c-0.204,0.071-0.528,0.144-0.936,0.144c-0.492,0-0.888-0.168-1.14-0.443c-0.288-0.324-0.408-0.84-0.408-1.523v-3.166
			h-0.899v-0.804h0.899v-1.079L-326.474-93.152z"/>
		<path d="M-323.917-87.023c0.324,0.191,0.875,0.408,1.403,0.408c0.756,0,1.115-0.372,1.115-0.864c0-0.504-0.3-0.768-1.067-1.055
			c-1.055-0.384-1.547-0.948-1.547-1.644c0-0.936,0.768-1.703,2.003-1.703c0.587,0,1.104,0.156,1.415,0.36l-0.252,0.768
			c-0.228-0.145-0.647-0.349-1.187-0.349c-0.624,0-0.959,0.36-0.959,0.792c0,0.479,0.335,0.695,1.091,0.995
			c0.996,0.372,1.523,0.876,1.523,1.739c0,1.031-0.803,1.751-2.159,1.751c-0.636,0-1.223-0.168-1.631-0.407L-323.917-87.023z"/>
		<path d="M-316.477-89.95c0-0.684-0.012-1.271-0.048-1.811h0.923l0.048,1.151h0.036c0.264-0.779,0.912-1.271,1.619-1.271
			c0.108,0,0.192,0.012,0.288,0.024v0.995c-0.108-0.024-0.216-0.024-0.36-0.024c-0.744,0-1.271,0.552-1.416,1.344
			c-0.024,0.144-0.036,0.324-0.036,0.491v3.095h-1.056V-89.95z"/>
		<path d="M-312.085-88.667c0.024,1.428,0.923,2.016,1.991,2.016c0.755,0,1.223-0.132,1.607-0.3l0.192,0.755
			c-0.372,0.168-1.019,0.372-1.943,0.372c-1.787,0-2.854-1.188-2.854-2.938s1.032-3.118,2.723-3.118
			c1.907,0,2.399,1.655,2.399,2.723c0,0.216-0.012,0.372-0.036,0.491H-312.085z M-308.991-89.422
			c0.012-0.66-0.276-1.703-1.463-1.703c-1.08,0-1.535,0.972-1.619,1.703H-308.991z"/>
		<path d="M-302.703-86.844h-0.024c-0.324,0.563-0.959,1.02-1.895,1.02c-1.355,0-2.459-1.163-2.459-2.927
			c0-2.183,1.403-3.13,2.627-3.13c0.899,0,1.499,0.443,1.787,0.995h0.024l0.036-0.875h0.996c-0.024,0.479-0.048,0.995-0.048,1.595
			v6.585h-1.043V-86.844z M-302.703-89.41c0-0.144-0.012-0.3-0.048-0.432c-0.167-0.647-0.719-1.199-1.511-1.199
			c-1.092,0-1.751,0.923-1.751,2.219c0,1.163,0.552,2.158,1.715,2.158c0.684,0,1.271-0.419,1.511-1.139
			c0.048-0.156,0.084-0.36,0.084-0.516V-89.41z"/>
		<path d="M-295.048-87.551c0,0.611,0.012,1.139,0.048,1.595h-0.936l-0.06-0.947h-0.024c-0.264,0.468-0.887,1.079-1.919,1.079
			c-0.911,0-2.003-0.516-2.003-2.543v-3.394h1.056v3.202c0,1.104,0.348,1.859,1.295,1.859c0.708,0,1.199-0.492,1.391-0.972
			c0.06-0.145,0.096-0.336,0.096-0.54v-3.55h1.056V-87.551z"/>
		<path d="M-292.118-93.392c0,0.359-0.252,0.647-0.671,0.647c-0.384,0-0.636-0.288-0.636-0.647c0-0.36,0.264-0.66,0.66-0.66
			C-292.382-94.052-292.118-93.764-292.118-93.392z M-293.293-85.956v-5.805h1.056v5.805H-293.293z"/>
		<path d="M-290.486-89.95c0-0.684-0.012-1.271-0.048-1.811h0.923l0.048,1.151h0.036c0.264-0.779,0.912-1.271,1.619-1.271
			c0.108,0,0.192,0.012,0.288,0.024v0.995c-0.108-0.024-0.216-0.024-0.36-0.024c-0.744,0-1.271,0.552-1.416,1.344
			c-0.024,0.144-0.036,0.324-0.036,0.491v3.095h-1.056V-89.95z"/>
		<path d="M-286.094-88.667c0.024,1.428,0.923,2.016,1.991,2.016c0.755,0,1.223-0.132,1.607-0.3l0.192,0.755
			c-0.372,0.168-1.019,0.372-1.943,0.372c-1.787,0-2.854-1.188-2.854-2.938s1.032-3.118,2.723-3.118
			c1.907,0,2.399,1.655,2.399,2.723c0,0.216-0.012,0.372-0.036,0.491H-286.094z M-283-89.422c0.012-0.66-0.276-1.703-1.463-1.703
			c-1.079,0-1.535,0.972-1.619,1.703H-283z"/>
		<path d="M-275.668-94.472v7.017c0,0.516,0.024,1.104,0.048,1.499h-0.936l-0.048-1.008h-0.036c-0.312,0.648-1.007,1.14-1.955,1.14
			c-1.403,0-2.495-1.188-2.495-2.95c-0.012-1.931,1.2-3.106,2.603-3.106c0.9,0,1.487,0.42,1.751,0.876h0.024v-3.467H-275.668z
			 M-276.711-89.398c0-0.132-0.012-0.312-0.048-0.443c-0.156-0.66-0.731-1.212-1.523-1.212c-1.091,0-1.739,0.96-1.739,2.231
			c0,1.175,0.588,2.146,1.715,2.146c0.708,0,1.355-0.479,1.547-1.259c0.036-0.145,0.048-0.288,0.048-0.456V-89.398z"/>
		<path d="M-274.142-90.802c0-0.443,0.3-0.755,0.708-0.755c0.432,0,0.708,0.312,0.708,0.755c0,0.42-0.276,0.744-0.72,0.744
			C-273.854-90.058-274.142-90.382-274.142-90.802z M-274.142-86.567c0-0.444,0.3-0.756,0.708-0.756
			c0.432,0,0.708,0.312,0.708,0.756c0,0.42-0.276,0.743-0.72,0.743C-273.854-85.824-274.142-86.147-274.142-86.567z"/>
		<path d="M-259.061-93.752v0.696l-3.395,7.1h-1.091l3.382-6.896v-0.023h-3.814v-0.876H-259.061z"/>
		<path d="M-252.773-89.938c0,2.65-0.996,4.113-2.71,4.113c-1.523,0-2.567-1.427-2.591-4.006c0-2.626,1.14-4.054,2.723-4.054
			C-253.721-93.884-252.773-92.421-252.773-89.938z M-257.007-89.818c0,2.027,0.624,3.179,1.583,3.179
			c1.067,0,1.583-1.26,1.583-3.25c0-1.919-0.48-3.179-1.583-3.179C-256.335-93.068-257.007-91.94-257.007-89.818z"/>
	</g>
	<g>
	</g>
	<g>
	</g>
	<g>
	</g>
	<g>
	</g>
	<g>
	</g>
	<g>
	</g>
</g>
</svg>
