<?xml version="1.0" encoding="utf-8"?>
<!-- Generator: Adobe Illustrator 22.1.0, SVG Export Plug-In . SVG Version: 6.00 Build 0)  -->
<svg version="1.1" xmlns="http://www.w3.org/2000/svg" xmlns:xlink="http://www.w3.org/1999/xlink" x="0px" y="0px"
	 viewBox="0 0 525 383.956" style="enable-background:new 0 0 525 383.956;" xml:space="preserve">
<g id="VuMark-UserData">
</g>
<g id="VuMark-Border">
	<polygon style="fill:#C13C80;" points="153.125,51.129 204.934,0 443.257,0 525,116.247 525,254.925 431.743,376.034 
		63.322,383.956 0,267.606 0,174.13 66.776,59.57 	"/>
</g>
<g id="VuMark-ClearSpace">
	<polyline style="fill:#F8F8F7;" points="499,248.593 420.724,348.305 74.91,352.943 20,261.347 23.505,191.665 74.91,95.546 
		156.69,88.59 215.105,30.387 428.902,30.387 499,126.851 	"/>
</g>
<g id="VuMark-Origin">
	
		<circle id="VuMark_Origin_Locator" style="fill:none;stroke:#BA007C;stroke-width:0.75;stroke-miterlimit:10;" cx="263" cy="199.943" r="10"/>
</g>
<g id="VuMark-Contour">
	<polygon id="contour" style="fill:none;stroke:#BA007C;stroke-miterlimit:10;" points="107.665,114.443 253.5,114.443 
		286.5,151.271 351.688,156.414 372.5,204.655 377.35,252.331 331.5,288.443 206.14,280.943 90.881,279.943 59,192.943 	"/>
</g>
<g id="VuMark-AsymmetryMarker">
</g>
<g id="VuMark-Feedback">
	
		<circle id="c0014" style="fill:none;stroke:#BA007C;stroke-width:0.75;stroke-miterlimit:10;" cx="122.148" cy="174.405" r="7.875"/>
	
		<circle id="c0021" style="fill:none;stroke:#BA007C;stroke-width:0.75;stroke-miterlimit:10;" cx="122.148" cy="158.047" r="7.875"/>
	
		<circle id="c0015" style="fill:none;stroke:#BA007C;stroke-width:0.75;stroke-miterlimit:10;" cx="125.777" cy="211.446" r="7.875"/>
	
		<circle id="c0000" style="fill:none;stroke:#BA007C;stroke-width:0.75;stroke-miterlimit:10;" cx="125.811" cy="227.685" r="7.875"/>
	
		<circle id="c0016" style="fill:none;stroke:#BA007C;stroke-width:0.75;stroke-miterlimit:10;" cx="136.481" cy="181.718" r="7.875"/>
	
		<circle id="c0022" style="fill:none;stroke:#BA007C;stroke-width:0.75;stroke-miterlimit:10;" cx="136.481" cy="166.13" r="7.875"/>
	
		<circle id="c0023" style="fill:none;stroke:#BA007C;stroke-width:0.75;stroke-miterlimit:10;" cx="136.481" cy="149.964" r="7.875"/>
	
		<circle id="c0001" style="fill:none;stroke:#BA007C;stroke-width:0.75;stroke-miterlimit:10;" cx="139.336" cy="219.876" r="7.875"/>
	
		<circle id="c0002" style="fill:none;stroke:#BA007C;stroke-width:0.75;stroke-miterlimit:10;" cx="139.777" cy="235.695" r="7.875"/>
	
		<circle id="c0017" style="fill:none;stroke:#BA007C;stroke-width:0.75;stroke-miterlimit:10;" cx="139.843" cy="204.518" r="7.875"/>
	
		<circle id="c0024" style="fill:none;stroke:#BA007C;stroke-width:0.75;stroke-miterlimit:10;" cx="150.481" cy="174.213" r="7.875"/>
	
		<circle id="c0025" style="fill:none;stroke:#BA007C;stroke-width:0.75;stroke-miterlimit:10;" cx="150.481" cy="158.047" r="7.875"/>
	
		<circle id="c0003" style="fill:none;stroke:#BA007C;stroke-width:0.75;stroke-miterlimit:10;" cx="153.177" cy="227.612" r="7.875"/>
	
		<circle id="c0004" style="fill:none;stroke:#BA007C;stroke-width:0.75;stroke-miterlimit:10;" cx="153.408" cy="243.809" r="7.875"/>
	
		<circle id="c0018" style="fill:none;stroke:#BA007C;stroke-width:0.75;stroke-miterlimit:10;" cx="153.644" cy="212.072" r="7.875"/>
	
		<circle id="c0005" style="fill:none;stroke:#BA007C;stroke-width:0.75;stroke-miterlimit:10;" cx="167.177" cy="219.876" r="7.875"/>
	
		<circle id="c0006" style="fill:none;stroke:#BA007C;stroke-width:0.75;stroke-miterlimit:10;" cx="167.408" cy="235.726" r="7.875"/>
	
		<circle id="c0019" style="fill:none;stroke:#BA007C;stroke-width:0.75;stroke-miterlimit:10;" cx="167.803" cy="204.057" r="7.875"/>
	
		<circle id="c0026" style="fill:none;stroke:#BA007C;stroke-width:0.75;stroke-miterlimit:10;" cx="178.255" cy="163.92" r="7.875"/>
	
		<circle id="c0027" style="fill:none;stroke:#BA007C;stroke-width:0.75;stroke-miterlimit:10;" cx="179.008" cy="147.818" r="7.875"/>
	
		<circle id="c0007" style="fill:none;stroke:#BA007C;stroke-width:0.75;stroke-miterlimit:10;" cx="181.142" cy="243.855" r="7.875"/>
	
		<circle id="c0008" style="fill:none;stroke:#BA007C;stroke-width:0.75;stroke-miterlimit:10;" cx="181.255" cy="212.555" r="7.875"/>
	
		<circle id="c0020" style="fill:none;stroke:#BA007C;stroke-width:0.75;stroke-miterlimit:10;" cx="181.383" cy="196.082" r="7.875"/>
	
		<circle id="c0009" style="fill:none;stroke:#BA007C;stroke-width:0.75;stroke-miterlimit:10;" cx="181.408" cy="228.489" r="7.875"/>
	
		<circle id="c0028" style="fill:none;stroke:#BA007C;stroke-width:0.75;stroke-miterlimit:10;" cx="192.408" cy="156.414" r="7.875"/>
	
		<circle id="c0029" style="fill:none;stroke:#BA007C;stroke-width:0.75;stroke-miterlimit:10;" cx="195.191" cy="188.472" r="7.875"/>
	
		<circle id="c0030" style="fill:none;stroke:#BA007C;stroke-width:0.75;stroke-miterlimit:10;" cx="195.315" cy="204.518" r="7.875"/>
	
		<circle id="c0010" style="fill:none;stroke:#BA007C;stroke-width:0.75;stroke-miterlimit:10;" cx="195.408" cy="236.628" r="7.875"/>
	
		<circle id="c0011" style="fill:none;stroke:#BA007C;stroke-width:0.75;stroke-miterlimit:10;" cx="195.547" cy="220.506" r="7.875"/>
	
		<circle id="c0031" style="fill:none;stroke:#BA007C;stroke-width:0.75;stroke-miterlimit:10;" cx="206.408" cy="147.818" r="7.875"/>
	
		<circle id="c0032" style="fill:none;stroke:#BA007C;stroke-width:0.75;stroke-miterlimit:10;" cx="207.608" cy="163.92" r="7.875"/>
	
		<circle id="c0013" style="fill:none;stroke:#BA007C;stroke-width:0.75;stroke-miterlimit:10;" cx="209.408" cy="228.422" r="7.875"/>
	
		<circle id="c0033" style="fill:none;stroke:#BA007C;stroke-width:0.75;stroke-miterlimit:10;" cx="209.408" cy="212.503" r="7.875"/>
	
		<circle id="c0012" style="fill:none;stroke:#BA007C;stroke-width:0.75;stroke-miterlimit:10;" cx="209.408" cy="243.995" r="7.875"/>
	
		<circle id="c0034" style="fill:none;stroke:#BA007C;stroke-width:0.75;stroke-miterlimit:10;" cx="209.702" cy="196.443" r="7.875"/>
	
		<circle id="c0042" style="fill:none;stroke:#BA007C;stroke-width:0.75;stroke-miterlimit:10;" cx="222.89" cy="203.923" r="7.875"/>
	
		<circle id="c0043" style="fill:none;stroke:#BA007C;stroke-width:0.75;stroke-miterlimit:10;" cx="223.088" cy="188.313" r="7.875"/>
	
		<circle id="c0035" style="fill:none;stroke:#BA007C;stroke-width:0.75;stroke-miterlimit:10;" cx="223.881" cy="235.869" r="7.875"/>
	
		<circle id="c0036" style="fill:none;stroke:#BA007C;stroke-width:0.75;stroke-miterlimit:10;" cx="223.881" cy="219.726" r="7.875"/>
	
		<circle id="c0044" style="fill:none;stroke:#BA007C;stroke-width:0.75;stroke-miterlimit:10;" cx="237.076" cy="195.818" r="7.875"/>
	
		<circle id="c0037" style="fill:none;stroke:#BA007C;stroke-width:0.75;stroke-miterlimit:10;" cx="237.344" cy="243.855" r="7.875"/>
	
		<circle id="c0045" style="fill:none;stroke:#BA007C;stroke-width:0.75;stroke-miterlimit:10;" cx="237.344" cy="211.407" r="7.875"/>
	
		<circle id="c0038" style="fill:none;stroke:#BA007C;stroke-width:0.75;stroke-miterlimit:10;" cx="237.547" cy="227.749" r="7.875"/>
	
		<circle id="c0046" style="fill:none;stroke:#BA007C;stroke-width:0.75;stroke-miterlimit:10;" cx="251.252" cy="203.923" r="7.875"/>
	
		<circle id="c0039" style="fill:none;stroke:#BA007C;stroke-width:0.75;stroke-miterlimit:10;" cx="251.252" cy="219.837" r="7.875"/>
	
		<circle id="c0040" style="fill:none;stroke:#BA007C;stroke-width:0.75;stroke-miterlimit:10;" cx="251.252" cy="236.628" r="7.875"/>
	
		<circle id="c0047" style="fill:none;stroke:#BA007C;stroke-width:0.75;stroke-miterlimit:10;" cx="251.743" cy="188.313" r="7.875"/>
	
		<circle id="c0041" style="fill:none;stroke:#BA007C;stroke-width:0.75;stroke-miterlimit:10;" cx="264.783" cy="227.645" r="7.875"/>
	
		<circle id="c0048" style="fill:none;stroke:#BA007C;stroke-width:0.75;stroke-miterlimit:10;" cx="265.119" cy="212.06" r="7.875"/>
	
		<circle id="c0049" style="fill:none;stroke:#BA007C;stroke-width:0.75;stroke-miterlimit:10;" cx="265.391" cy="244.326" r="7.875"/>
	
		<circle id="c0056" style="fill:none;stroke:#BA007C;stroke-width:0.75;stroke-miterlimit:10;" cx="265.639" cy="196.476" r="7.875"/>
	
		<circle id="c0050" style="fill:none;stroke:#BA007C;stroke-width:0.75;stroke-miterlimit:10;" cx="279.075" cy="236.425" r="7.875"/>
	
		<circle id="c0051" style="fill:none;stroke:#BA007C;stroke-width:0.75;stroke-miterlimit:10;" cx="279.141" cy="220.801" r="7.875"/>
	
		<circle id="c0057" style="fill:none;stroke:#BA007C;stroke-width:0.75;stroke-miterlimit:10;" cx="279.444" cy="204.653" r="7.875"/>
	
		<circle id="c0058" style="fill:none;stroke:#BA007C;stroke-width:0.75;stroke-miterlimit:10;" cx="279.444" cy="188.505" r="7.875"/>
	
		<circle id="c0052" style="fill:none;stroke:#BA007C;stroke-width:0.75;stroke-miterlimit:10;" cx="293.265" cy="244.326" r="7.875"/>
	
		<circle id="c0059" style="fill:none;stroke:#BA007C;stroke-width:0.75;stroke-miterlimit:10;" cx="293.412" cy="212.699" r="7.875"/>
	
		<circle id="c0053" style="fill:none;stroke:#BA007C;stroke-width:0.75;stroke-miterlimit:10;" cx="293.608" cy="228.422" r="7.875"/>
	
		<circle id="c0060" style="fill:none;stroke:#BA007C;stroke-width:0.75;stroke-miterlimit:10;" cx="293.608" cy="196.476" r="7.875"/>
	
		<circle id="c0054" style="fill:none;stroke:#BA007C;stroke-width:0.75;stroke-miterlimit:10;" cx="307.413" cy="220.452" r="7.875"/>
	
		<circle id="c0061" style="fill:none;stroke:#BA007C;stroke-width:0.75;stroke-miterlimit:10;" cx="307.413" cy="204.478" r="7.875"/>
	
		<circle id="c0055" style="fill:none;stroke:#BA007C;stroke-width:0.75;stroke-miterlimit:10;" cx="307.413" cy="236.425" r="7.875"/>
	
		<circle id="c0062" style="fill:none;stroke:#BA007C;stroke-width:0.75;stroke-miterlimit:10;" cx="307.413" cy="188.505" r="7.875"/>
	
		<circle id="c0063" style="fill:none;stroke:#BA007C;stroke-width:0.75;stroke-miterlimit:10;" cx="321.208" cy="244.28" r="7.875"/>
	
		<circle id="c0064" style="fill:none;stroke:#BA007C;stroke-width:0.75;stroke-miterlimit:10;" cx="321.208" cy="195.818" r="7.875"/>
	
		<circle id="c0066" style="fill:none;stroke:#BA007C;stroke-width:0.75;stroke-miterlimit:10;" cx="321.276" cy="228.489" r="7.875"/>
	
		<circle id="c0065" style="fill:none;stroke:#BA007C;stroke-width:0.75;stroke-miterlimit:10;" cx="321.276" cy="212.06" r="7.875"/>
	
		<circle id="c0067" style="fill:none;stroke:#BA007C;stroke-width:0.75;stroke-miterlimit:10;" cx="335.329" cy="203.947" r="7.875"/>
	
		<circle id="c0068" style="fill:none;stroke:#BA007C;stroke-width:0.75;stroke-miterlimit:10;" cx="335.632" cy="220.801" r="7.875"/>
	
		<circle id="c0069" style="fill:none;stroke:#BA007C;stroke-width:0.75;stroke-miterlimit:10;" cx="335.632" cy="236.425" r="7.875"/>
	<polygon style="fill:none;stroke:#BA007C;stroke-miterlimit:10;" points="206.14,280.943 90.881,279.943 59,192.943 
		107.665,114.443 253.5,114.443 286.5,151.271 351.688,156.414 372.5,204.655 377.35,252.331 331.5,288.443 	"/>
	<path id="MinimumContourClearSpace" style="opacity:0.5;fill-rule:evenodd;clip-rule:evenodd;fill:#BA007C;" d="M205.601,296.689
		l-125.757-1.091L41.573,191.162l57.324-92.469h161.638l33.488,37.373l68.366,5.394l25.534,59.186l5.971,58.704l-57.355,45.174
		L205.601,296.689z M206.679,265.197l-104.76-0.909l-25.492-69.564l40.005-64.531h130.033l32.512,36.284l62.011,4.892l16.089,37.296
		l3.729,36.649l-34.344,27.049L206.679,265.197z"/>
</g>
<g id="VuMark-DarkElements">
	<polygon id="d0057" style="fill:#09060A;" points="288.11,204.653 283.777,212.159 275.11,212.159 270.777,204.653 275.11,197.148 
		283.777,197.148 	"/>
	<polygon id="d0061" style="fill:#09060A;" points="316.08,204.478 311.746,211.984 303.08,211.984 298.746,204.478 303.08,196.973 
		311.746,196.973 	"/>
	<polygon id="d0059" style="fill:#09060A;" points="302.079,212.699 297.746,220.205 289.079,220.205 284.746,212.699 
		289.079,205.194 297.746,205.194 	"/>
	<polygon id="d0065" style="fill:#09060A;" points="329.942,212.06 325.609,219.566 316.942,219.566 312.609,212.06 
		316.942,204.555 325.609,204.555 	"/>
	<polygon id="d0034" style="fill:#09060A;" points="218.368,196.443 214.035,203.948 205.368,203.948 201.035,196.443 
		205.368,188.937 214.035,188.937 	"/>
	<polygon id="d0054" style="fill:#09060A;" points="316.08,220.452 311.746,227.957 303.08,227.957 298.746,220.452 303.08,212.946 
		311.746,212.946 	"/>
	<polygon id="d0051" style="fill:#09060A;" points="287.808,220.801 283.474,228.307 274.808,228.307 270.474,220.801 
		274.808,213.296 283.474,213.296 	"/>
	<polygon id="d0053" style="fill:#09060A;" points="302.275,228.422 297.941,235.928 289.275,235.928 284.941,228.422 
		289.275,220.916 297.941,220.916 	"/>
	<polygon id="d0035" style="fill:#09060A;" points="232.547,235.869 228.214,243.375 219.547,243.375 215.214,235.869 
		219.547,228.364 228.214,228.364 	"/>
	<polygon id="d0052" style="fill:#09060A;" points="301.932,244.326 297.598,251.831 288.932,251.831 284.598,244.326 
		288.932,236.82 297.598,236.82 	"/>
	<polygon id="d0050" style="fill:#09060A;" points="287.742,236.425 283.408,243.931 274.742,243.931 270.408,236.425 
		274.742,228.919 283.408,228.919 	"/>
	<polygon id="d0041" style="fill:#09060A;" points="273.45,227.645 269.117,235.151 260.45,235.151 256.117,227.645 260.45,220.14 
		269.117,220.14 	"/>
	<polygon id="d0000" style="fill:#09060A;" points="134.477,227.685 130.144,235.19 121.477,235.19 117.144,227.685 
		121.477,220.179 130.144,220.179 	"/>
	<polygon id="d0001" style="fill:#09060A;" points="148.003,219.876 143.669,227.381 135.003,227.381 130.669,219.876 
		135.003,212.37 143.669,212.37 	"/>
	<polygon id="d0023" style="fill:#09060A;" points="145.148,149.964 140.815,157.47 132.148,157.47 127.815,149.964 
		132.148,142.459 140.815,142.459 	"/>
	<polygon id="d0002" style="fill:#09060A;" points="148.444,235.695 144.111,243.2 135.444,243.2 131.111,235.695 135.444,228.189 
		144.111,228.189 	"/>
	<polygon id="d0018" style="fill:#09060A;" points="162.311,212.072 157.977,219.578 149.311,219.578 144.977,212.072 
		149.311,204.566 157.977,204.566 	"/>
	<polygon id="d0037" style="fill:#09060A;" points="246.01,243.855 241.677,251.36 233.01,251.36 228.677,243.855 233.01,236.349 
		241.677,236.349 	"/>
	<polygon id="d0028" style="fill:#09060A;" points="201.075,156.414 196.741,163.92 188.075,163.92 183.741,156.414 
		188.075,148.908 196.741,148.908 	"/>
	<polygon id="d0027" style="fill:#09060A;" points="187.675,147.818 183.341,155.324 174.675,155.324 170.341,147.818 
		174.675,140.313 183.341,140.313 	"/>
	<polygon id="d0025" style="fill:#09060A;" points="159.148,158.047 154.815,165.553 146.148,165.553 141.815,158.047 
		146.148,150.542 154.815,150.542 	"/>
	<polygon id="d0021" style="fill:#09060A;" points="130.815,158.047 126.481,165.553 117.815,165.553 113.481,158.047 
		117.815,150.542 126.481,150.542 	"/>
	<polygon id="d0031" style="fill:#09060A;" points="215.075,147.818 210.741,155.324 202.075,155.324 197.741,147.818 
		202.075,140.313 210.741,140.313 	"/>
	<polygon id="d0022" style="fill:#09060A;" points="145.148,166.13 140.815,173.636 132.148,173.636 127.815,166.13 
		132.148,158.624 140.815,158.624 	"/>
	<polygon id="d0020" style="fill:#09060A;" points="190.05,196.082 185.717,203.587 177.05,203.587 172.717,196.082 177.05,188.576 
		185.717,188.576 	"/>
	<polygon id="d0019" style="fill:#09060A;" points="176.469,204.057 172.136,211.563 163.469,211.563 159.136,204.057 
		163.469,196.552 172.136,196.552 	"/>
	<polygon id="d0049" style="fill:#09060A;" points="274.057,244.326 269.724,251.831 261.057,251.831 256.724,244.326 
		261.057,236.82 269.724,236.82 	"/>
	<polygon id="d0029" style="fill:#09060A;" points="203.858,188.472 199.525,195.977 190.858,195.977 186.525,188.472 
		190.858,180.966 199.525,180.966 	"/>
	<polygon id="d0015" style="fill:#09060A;" points="134.444,211.446 130.111,218.952 121.444,218.952 117.111,211.446 
		121.444,203.941 130.111,203.941 	"/>
	<polygon id="d0040" style="fill:#09060A;" points="259.919,236.628 255.585,244.134 246.919,244.134 242.585,236.628 
		246.919,229.123 255.585,229.123 	"/>
	<polygon id="d0012" style="fill:#09060A;" points="218.075,243.995 213.741,251.501 205.075,251.501 200.741,243.995 
		205.075,236.489 213.741,236.489 	"/>
	<polygon id="d0024" style="fill:#09060A;" points="159.148,174.213 154.815,181.719 146.148,181.719 141.815,174.213 
		146.148,166.707 154.815,166.707 	"/>
	<polygon id="d0014" style="fill:#09060A;" points="130.815,174.405 126.481,181.911 117.815,181.911 113.481,174.405 
		117.815,166.9 126.481,166.9 	"/>
	<polygon id="d0016" style="fill:#09060A;" points="145.148,181.718 140.815,189.224 132.148,189.224 127.815,181.718 
		132.148,174.213 140.815,174.213 	"/>
	<polygon id="d0006" style="fill:#09060A;" points="176.075,235.726 171.741,243.232 163.075,243.232 158.741,235.726 
		163.075,228.221 171.741,228.221 	"/>
	<polygon id="d0003" style="fill:#09060A;" points="161.843,227.612 157.51,235.117 148.843,235.117 144.51,227.612 
		148.843,220.106 157.51,220.106 	"/>
	<polygon id="d0017" style="fill:#09060A;" points="148.51,204.518 144.177,212.023 135.51,212.023 131.177,204.518 135.51,197.012 
		144.177,197.012 	"/>
	<polygon id="d0043" style="fill:#09060A;" points="231.755,188.313 227.421,195.818 218.755,195.818 214.421,188.313 
		218.755,180.807 227.421,180.807 	"/>
	<polygon id="d0046" style="fill:#09060A;" points="259.919,203.923 255.585,211.429 246.919,211.429 242.585,203.923 
		246.919,196.418 255.585,196.418 	"/>
	<polygon id="d0030" style="fill:#09060A;" points="203.982,204.518 199.649,212.023 190.982,212.023 186.649,204.518 
		190.982,197.012 199.649,197.012 	"/>
	<polygon id="d0008" style="fill:#09060A;" points="189.922,212.555 185.589,220.061 176.922,220.061 172.589,212.555 
		176.922,205.05 185.589,205.05 	"/>
	<polygon id="d0047" style="fill:#09060A;" points="260.41,188.313 256.076,195.818 247.41,195.818 243.076,188.313 247.41,180.807 
		256.076,180.807 	"/>
	<polygon id="d0056" style="fill:#09060A;" points="274.305,196.476 269.972,203.981 261.305,203.981 256.972,196.476 
		261.305,188.97 269.972,188.97 	"/>
	<polygon id="d0058" style="fill:#09060A;" points="288.11,188.505 283.777,196.011 275.11,196.011 270.777,188.505 275.11,181 
		283.777,181 	"/>
	<polygon id="d0060" style="fill:#09060A;" points="302.275,196.476 297.941,203.981 289.275,203.981 284.941,196.476 
		289.275,188.97 297.941,188.97 	"/>
	<polygon id="d0062" style="fill:#09060A;" points="316.08,188.505 311.746,196.011 303.08,196.011 298.746,188.505 303.08,181 
		311.746,181 	"/>
	<polygon id="d0064" style="fill:#09060A;" points="329.875,195.818 325.541,203.324 316.875,203.324 312.541,195.818 
		316.875,188.313 325.541,188.313 	"/>
	<polygon id="d0067" style="fill:#09060A;" points="343.996,203.947 339.662,211.452 330.996,211.452 326.662,203.947 
		330.996,196.441 339.662,196.441 	"/>
	<polygon id="d0044" style="fill:#09060A;" points="245.742,195.818 241.409,203.324 232.742,203.324 228.409,195.818 
		232.742,188.313 241.409,188.313 	"/>
	<polygon id="d0055" style="fill:#09060A;" points="316.08,236.425 311.746,243.931 303.08,243.931 298.746,236.425 303.08,228.919 
		311.746,228.919 	"/>
	<polygon id="d0066" style="fill:#09060A;" points="329.942,228.489 325.609,235.995 316.942,235.995 312.609,228.489 
		316.942,220.984 325.609,220.984 	"/>
	<polygon id="d0068" style="fill:#09060A;" points="344.299,220.801 339.965,228.307 331.299,228.307 326.965,220.801 
		331.299,213.296 339.965,213.296 	"/>
	<polygon id="d0069" style="fill:#09060A;" points="344.299,236.425 339.965,243.931 331.299,243.931 326.965,236.425 
		331.299,228.919 339.965,228.919 	"/>
	<polygon id="d0063" style="fill:#09060A;" points="329.875,244.28 325.541,251.786 316.875,251.786 312.541,244.28 
		316.875,236.775 325.541,236.775 	"/>
	<polygon id="d0045" style="fill:#09060A;" points="246.01,211.407 241.677,218.912 233.01,218.912 228.677,211.407 233.01,203.901 
		241.677,203.901 	"/>
	<polygon id="d0042" style="fill:#09060A;" points="231.557,203.923 227.223,211.429 218.557,211.429 214.223,203.923 
		218.557,196.418 227.223,196.418 	"/>
	<polygon id="d0036" style="fill:#09060A;" points="232.547,219.726 228.214,227.232 219.547,227.232 215.214,219.726 
		219.547,212.221 228.214,212.221 	"/>
	<polygon id="d0013" style="fill:#09060A;" points="218.075,228.422 213.741,235.928 205.075,235.928 200.741,228.422 
		205.075,220.916 213.741,220.916 	"/>
	<polygon id="d0033" style="fill:#09060A;" points="218.075,212.503 213.741,220.009 205.075,220.009 200.741,212.503 
		205.075,204.998 213.741,204.998 	"/>
	<polygon id="d0011" style="fill:#09060A;" points="204.213,220.506 199.88,228.012 191.213,228.012 186.88,220.506 
		191.213,213.001 199.88,213.001 	"/>
	<polygon id="d0009" style="fill:#09060A;" points="190.075,228.489 185.741,235.995 177.075,235.995 172.741,228.489 
		177.075,220.984 185.741,220.984 	"/>
	<polygon id="d0010" style="fill:#09060A;" points="204.075,236.628 199.741,244.134 191.075,244.134 186.741,236.628 
		191.075,229.123 199.741,229.123 	"/>
	<polygon id="d0007" style="fill:#09060A;" points="189.809,243.855 185.475,251.36 176.809,251.36 172.475,243.855 
		176.809,236.349 185.475,236.349 	"/>
	<polygon id="d0005" style="fill:#09060A;" points="175.843,219.876 171.51,227.381 162.843,227.381 158.51,219.876 162.843,212.37 
		171.51,212.37 	"/>
	<polygon id="d0048" style="fill:#09060A;" points="273.785,212.06 269.452,219.566 260.785,219.566 256.452,212.06 
		260.785,204.555 269.452,204.555 	"/>
	<polygon id="d0039" style="fill:#09060A;" points="259.919,219.837 255.585,227.342 246.919,227.342 242.585,219.837 
		246.919,212.331 255.585,212.331 	"/>
	<polygon id="d0038" style="fill:#09060A;" points="246.213,227.749 241.88,235.255 233.213,235.255 228.88,227.749 
		233.213,220.244 241.88,220.244 	"/>
	<polygon id="d0004" style="fill:#09060A;" points="162.075,243.809 157.741,251.315 149.075,251.315 144.741,243.809 
		149.075,236.304 157.741,236.304 	"/>
	<polygon id="d0032" style="fill:#09060A;" points="216.275,163.92 211.941,171.425 203.275,171.425 198.941,163.92 
		203.275,156.414 211.941,156.414 	"/>
	<polygon id="d0026" style="fill:#09060A;" points="186.921,163.92 182.588,171.425 173.921,171.425 169.588,163.92 
		173.921,156.414 182.588,156.414 	"/>
</g>
<g id="VuMark-BrightElements">
	<polygon id="b0035" style="fill:#FFFFFF;" points="232.279,235.871 227.946,243.377 219.279,243.377 214.946,235.871 
		219.279,228.366 227.946,228.366 	"/>
	<polygon id="b0052" style="fill:#FFFFFF;" points="301.664,244.327 297.33,251.833 288.664,251.833 284.33,244.327 
		288.664,236.822 297.33,236.822 	"/>
	<polygon id="b0050" style="fill:#FFFFFF;" points="287.474,236.427 283.14,243.932 274.474,243.932 270.14,236.427 
		274.474,228.921 283.14,228.921 	"/>
	<polygon id="b0041" style="fill:#FFFFFF;" points="273.182,227.647 268.849,235.153 260.182,235.153 255.849,227.647 
		260.182,220.142 268.849,220.142 	"/>
	<polygon id="b0000" style="fill:#FFFFFF;" points="134.441,227.647 130.107,235.153 121.441,235.153 117.107,227.647 
		121.441,220.142 130.107,220.142 	"/>
	<polygon id="b0001" style="fill:#FFFFFF;" points="147.966,219.838 143.633,227.344 134.966,227.344 130.633,219.838 
		134.966,212.333 143.633,212.333 	"/>
	<polygon id="b0023" style="fill:#FFFFFF;" points="144.88,149.966 140.547,157.471 131.88,157.471 127.547,149.966 131.88,142.46 
		140.547,142.46 	"/>
	<polygon id="b0002" style="fill:#FFFFFF;" points="148.407,235.657 144.074,243.163 135.407,243.163 131.074,235.657 
		135.407,228.152 144.074,228.152 	"/>
	<polygon id="b0018" style="fill:#FFFFFF;" points="162.398,212.062 158.065,219.568 149.398,219.568 145.065,212.062 
		149.398,204.557 158.065,204.557 	"/>
	<polygon id="b0037" style="fill:#FFFFFF;" points="245.742,243.857 241.409,251.362 232.742,251.362 228.409,243.857 
		232.742,236.351 241.409,236.351 	"/>
	<polygon id="b0028" style="fill:#FFFFFF;" points="200.807,156.416 196.473,163.921 187.807,163.921 183.473,156.416 
		187.807,148.91 196.473,148.91 	"/>
	<polygon id="b0027" style="fill:#FFFFFF;" points="187.407,147.82 183.073,155.326 174.407,155.326 170.073,147.82 
		174.407,140.314 183.073,140.314 	"/>
	<polygon id="b0025" style="fill:#FFFFFF;" points="158.88,158.049 154.547,165.554 145.88,165.554 141.547,158.049 145.88,150.543 
		154.547,150.543 	"/>
	<polygon id="b0021" style="fill:#FFFFFF;" points="130.547,158.049 126.213,165.554 117.547,165.554 113.213,158.049 
		117.547,150.543 126.213,150.543 	"/>
	<polygon id="b0031" style="fill:#FFFFFF;" points="214.807,147.82 210.473,155.326 201.807,155.326 197.473,147.82 
		201.807,140.314 210.473,140.314 	"/>
	<polygon id="b0022" style="fill:#FFFFFF;" points="144.88,166.132 140.547,173.637 131.88,173.637 127.547,166.132 131.88,158.626 
		140.547,158.626 	"/>
	<polygon id="b0020" style="fill:#FFFFFF;" points="190.137,196.072 185.804,203.577 177.137,203.577 172.804,196.072 
		177.137,188.566 185.804,188.566 	"/>
	<polygon id="b0019" style="fill:#FFFFFF;" points="176.557,204.047 172.223,211.553 163.557,211.553 159.223,204.047 
		163.557,196.542 172.223,196.542 	"/>
	<polygon id="b0049" style="fill:#FFFFFF;" points="273.789,244.327 269.456,251.833 260.789,251.833 256.456,244.327 
		260.789,236.822 269.456,236.822 	"/>
	<polygon id="b0029" style="fill:#FFFFFF;" points="203.945,188.462 199.612,195.967 190.945,195.967 186.612,188.462 
		190.945,180.956 199.612,180.956 	"/>
	<polygon id="b0015" style="fill:#FFFFFF;" points="134.407,211.408 130.074,218.914 121.407,218.914 117.074,211.408 
		121.407,203.903 130.074,203.903 	"/>
	<polygon id="b0040" style="fill:#FFFFFF;" points="259.651,236.63 255.317,244.136 246.651,244.136 242.317,236.63 
		246.651,229.125 255.317,229.125 	"/>
	<polygon id="b0012" style="fill:#FFFFFF;" points="217.807,243.997 213.473,251.502 204.807,251.502 200.473,243.997 
		204.807,236.491 213.473,236.491 	"/>
	<polygon id="b0024" style="fill:#FFFFFF;" points="158.88,174.215 154.547,181.72 145.88,181.72 141.547,174.215 145.88,166.709 
		154.547,166.709 	"/>
	<polygon id="b0014" style="fill:#FFFFFF;" points="130.547,174.407 126.213,181.913 117.547,181.913 113.213,174.407 
		117.547,166.902 126.213,166.902 	"/>
	<polygon id="b0016" style="fill:#FFFFFF;" points="144.88,181.72 140.547,189.226 131.88,189.226 127.547,181.72 131.88,174.215 
		140.547,174.215 	"/>
	<polygon id="b0006" style="fill:#FFFFFF;" points="175.807,235.728 171.473,243.234 162.807,243.234 158.473,235.728 
		162.807,228.223 171.473,228.223 	"/>
	<polygon id="b0003" style="fill:#FFFFFF;" points="161.807,227.574 157.473,235.08 148.807,235.08 144.473,227.574 
		148.807,220.069 157.473,220.069 	"/>
	<polygon id="b0017" style="fill:#FFFFFF;" points="148.473,204.48 144.14,211.986 135.473,211.986 131.14,204.48 135.473,196.975 
		144.14,196.975 	"/>
	<polygon id="b0043" style="fill:#FFFFFF;" points="231.807,188.314 227.473,195.82 218.807,195.82 214.473,188.314 
		218.807,180.809 227.473,180.809 	"/>
	<polygon id="b0046" style="fill:#FFFFFF;" points="259.651,203.925 255.317,211.431 246.651,211.431 242.317,203.925 
		246.651,196.42 255.317,196.42 	"/>
	<polygon id="b0030" style="fill:#FFFFFF;" points="203.945,204.48 199.612,211.986 190.945,211.986 186.612,204.48 
		190.945,196.975 199.612,196.975 	"/>
	<polygon id="b0008" style="fill:#FFFFFF;" points="189.885,212.518 185.552,220.023 176.885,220.023 172.552,212.518 
		176.885,205.012 185.552,205.012 	"/>
	<polygon id="b0047" style="fill:#FFFFFF;" points="260.407,188.314 256.073,195.82 247.407,195.82 243.073,188.314 
		247.407,180.809 256.073,180.809 	"/>
	<polygon id="b0056" style="fill:#FFFFFF;" points="274.037,196.477 269.704,203.983 261.037,203.983 256.704,196.477 
		261.037,188.972 269.704,188.972 	"/>
	<polygon id="b0058" style="fill:#FFFFFF;" points="287.842,188.507 283.509,196.012 274.842,196.012 270.509,188.507 
		274.842,181.001 283.509,181.001 	"/>
	<polygon id="b0060" style="fill:#FFFFFF;" points="302.007,196.477 297.673,203.983 289.007,203.983 284.673,196.477 
		289.007,188.972 297.673,188.972 	"/>
	<polygon id="b0062" style="fill:#FFFFFF;" points="315.812,188.507 311.478,196.012 302.812,196.012 298.478,188.507 
		302.812,181.001 311.478,181.001 	"/>
	<polygon id="b0064" style="fill:#FFFFFF;" points="329.607,195.82 325.273,203.325 316.607,203.325 312.273,195.82 
		316.607,188.314 325.273,188.314 	"/>
	<polygon id="b0067" style="fill:#FFFFFF;" points="343.728,203.948 339.394,211.454 330.728,211.454 326.394,203.948 
		330.728,196.443 339.394,196.443 	"/>
	<polygon id="b0044" style="fill:#FFFFFF;" points="245.807,195.82 241.473,203.325 232.807,203.325 228.473,195.82 
		232.807,188.314 241.473,188.314 	"/>
	<polygon id="b0055" style="fill:#FFFFFF;" points="315.812,236.427 311.478,243.932 302.812,243.932 298.478,236.427 
		302.812,228.921 311.478,228.921 	"/>
	<polygon id="b0066" style="fill:#FFFFFF;" points="329.674,228.491 325.341,235.996 316.674,235.996 312.341,228.491 
		316.674,220.985 325.341,220.985 	"/>
	<polygon id="b0068" style="fill:#FFFFFF;" points="344.031,220.803 339.697,228.309 331.031,228.309 326.697,220.803 
		331.031,213.297 339.697,213.297 	"/>
	<polygon id="b0069" style="fill:#FFFFFF;" points="344.031,236.427 339.697,243.932 331.031,243.932 326.697,236.427 
		331.031,228.921 339.697,228.921 	"/>
	<polygon id="b0063" style="fill:#FFFFFF;" points="329.607,244.282 325.273,251.787 316.607,251.787 312.273,244.282 
		316.607,236.776 325.273,236.776 	"/>
	<polygon id="b0045" style="fill:#FFFFFF;" points="245.742,211.408 241.409,218.914 232.742,218.914 228.409,211.408 
		232.742,203.903 241.409,203.903 	"/>
	<polygon id="b0042" style="fill:#FFFFFF;" points="231.557,204.047 227.223,211.553 218.557,211.553 214.223,204.047 
		218.557,196.542 227.223,196.542 	"/>
	<polygon id="b0036" style="fill:#FFFFFF;" points="232.279,219.728 227.946,227.233 219.279,227.233 214.946,219.728 
		219.279,212.222 227.946,212.222 	"/>
	<polygon id="b0013" style="fill:#FFFFFF;" points="217.807,228.424 213.473,235.929 204.807,235.929 200.473,228.424 
		204.807,220.918 213.473,220.918 	"/>
	<polygon id="b0033" style="fill:#FFFFFF;" points="217.807,212.505 213.473,220.011 204.807,220.011 200.473,212.505 204.807,205 
		213.473,205 	"/>
	<polygon id="b0011" style="fill:#FFFFFF;" points="203.945,220.508 199.612,228.014 190.945,228.014 186.612,220.508 
		190.945,213.003 199.612,213.003 	"/>
	<polygon id="b0009" style="fill:#FFFFFF;" points="189.807,228.491 185.473,235.996 176.807,235.996 172.473,228.491 
		176.807,220.985 185.473,220.985 	"/>
	<polygon id="b0010" style="fill:#FFFFFF;" points="203.807,236.63 199.473,244.136 190.807,244.136 186.473,236.63 
		190.807,229.125 199.473,229.125 	"/>
	<polygon id="b0007" style="fill:#FFFFFF;" points="189.541,243.857 185.207,251.362 176.541,251.362 172.207,243.857 
		176.541,236.351 185.207,236.351 	"/>
	<polygon id="b0005" style="fill:#FFFFFF;" points="175.807,219.838 171.473,227.344 162.807,227.344 158.473,219.838 
		162.807,212.333 171.473,212.333 	"/>
	<polygon id="b0048" style="fill:#FFFFFF;" points="273.517,212.062 269.184,219.568 260.517,219.568 256.184,212.062 
		260.517,204.557 269.184,204.557 	"/>
	<polygon id="b0039" style="fill:#FFFFFF;" points="259.651,219.838 255.317,227.344 246.651,227.344 242.317,219.838 
		246.651,212.333 255.317,212.333 	"/>
	<polygon id="b0038" style="fill:#FFFFFF;" points="245.945,227.751 241.612,235.257 232.945,235.257 228.612,227.751 
		232.945,220.245 241.612,220.245 	"/>
	<polygon id="b0004" style="fill:#FFFFFF;" points="161.807,243.811 157.473,251.316 148.807,251.316 144.473,243.811 
		148.807,236.305 157.473,236.305 	"/>
	<polygon id="b0057" style="fill:#FFFFFF;" points="288.618,204.655 284.285,212.161 275.618,212.161 271.285,204.655 
		275.618,197.149 284.285,197.149 	"/>
	<polygon id="b0061" style="fill:#FFFFFF;" points="316.587,204.48 312.254,211.986 303.587,211.986 299.254,204.48 
		303.587,196.975 312.254,196.975 	"/>
	<polygon id="b0059" style="fill:#FFFFFF;" points="302.587,212.701 298.253,220.206 289.587,220.206 285.253,212.701 
		289.587,205.195 298.253,205.195 	"/>
	<polygon id="b0065" style="fill:#FFFFFF;" points="330.45,212.062 326.117,219.568 317.45,219.568 313.117,212.062 317.45,204.557 
		326.117,204.557 	"/>
	<polygon id="b0034" style="fill:#FFFFFF;" points="218.444,196.477 214.111,203.983 205.444,203.983 201.111,196.477 
		205.444,188.972 214.111,188.972 	"/>
	<polygon id="b0054" style="fill:#FFFFFF;" points="316.587,220.453 312.254,227.959 303.587,227.959 299.254,220.453 
		303.587,212.948 312.254,212.948 	"/>
	<polygon id="b0051" style="fill:#FFFFFF;" points="288.316,220.803 283.982,228.309 275.316,228.309 270.982,220.803 
		275.316,213.297 283.982,213.297 	"/>
	<polygon id="b0053" style="fill:#FFFFFF;" points="302.782,228.424 298.449,235.929 289.782,235.929 285.449,228.424 
		289.782,220.918 298.449,220.918 	"/>
	<polygon id="b0032" style="fill:#FFFFFF;" points="216.415,164.12 212.082,171.626 203.415,171.626 199.082,164.12 
		203.415,156.615 212.082,156.615 	"/>
	<polygon id="b0026" style="fill:#FFFFFF;" points="186.921,163.92 182.588,171.425 173.921,171.425 169.588,163.92 
		173.921,156.414 182.588,156.414 	"/>
</g>
<g id="VuMark-Background">
	<path style="fill:#C13C80;" d="M277.134,297.66c-0.486,1.404-20.318-6.212-49.743-11.282c-13.64-2.35-25.724-4.432-41.971-4.029
		c-17.445,0.433-30.092,3.493-48.966,8.059c-12.713,3.076-37.57,9.729-37.152,12.088c0.384,2.165,21.422-2.751,51.919-1.612
		c10.369,0.387,20.653,1.43,55.183,8.059c60.968,11.703,54.841,13.429,73.06,15.163c20.384,1.94,53.393,5.082,88.604-11.133
		c14.188-6.534,37.586-16.747,52.075-41.1c16.854-28.327,12.605-60.164,15.419-60.037c2.025,0.091,4.938,16.616,2.014,35.078
		c-3.568,22.529-14.094,36.99-12.485,38.001c1.299,0.817,8.744-8.256,14.499-18.374c1.439-2.531,7.362-13.196,11.68-30.902
		c0.827-3.391,4.6-19.363,4.444-41.76c-0.075-10.769-0.152-21.908-3.638-35.913c-5.267-21.157-15.285-36.688-22.554-45.936
		c-7.808-9.933-20.158-25.645-42.288-33.825c-25.917-9.58-48.772-2.742-58.801,0.418c-9.453,2.978-25.233,8.165-38.664,22.968
		c-16.956,18.688-25.007,47.014-18.526,52.2c3.303,2.643,10.056-0.984,12.888-2.506c10.881-5.844,17.534-19.654,19.332-23.385
		c1.717-3.563,2.718-6.392,4.027-6.264c2.002,0.196,3.988,7.232,3.222,13.781c-0.62,5.301-2.784,8.056-1.611,9.187
		c1.333,1.286,5.504-0.948,8.055-2.923c1.416-1.096,5.548-4.602,8.055-12.11c2.967-8.884,0.517-13.963,3.625-15.869
		c1.799-1.103,4.287-0.178,9.263,1.67c5.077,1.886,8.666,4.12,10.069,5.011c1.037,0.659,9.597,6.131,14.902,11.275
		c20.767,20.141,19.805,62.585,18.929,69.321c-0.863,6.633-1.822,9.864-1.822,9.864c-0.985,3.317-1.839,4.825-1.4,5.169
		c0.916,0.717,6.4-4.454,10.471-10.022c5.174-7.077,7.3-13.748,8.86-18.792c3.499-11.308,3.836-21.089,4.027-27.979
		c0.11-3.96-0.21-7.081,0-7.099c0.44-0.039,2.545,13.486,2.9,24.61c0.211,6.608,0.736,31.199-11.223,53.898
		c-14.18,26.916-39.044,38.133-47.846,41.955c-55.661,24.163-116.32-6.607-117.797-1.515l28.898,17.746L277.134,297.66z"/>
	<line style="fill:#FBF6FA;" x1="468" y1="143.943" x2="468" y2="248.943"/>
</g>
<g id="VuMark-Description">
	<g id="VuMark:Omwtt">
		<path d="M-365.313-131.013l-2.65-8.084h1.139l1.259,3.982c0.336,1.091,0.636,2.074,0.864,3.022h0.024
			c0.228-0.936,0.552-1.955,0.923-3.011l1.367-3.994h1.116l-2.891,8.084H-365.313z"/>
		<path d="M-355.787-132.608c0,0.611,0.012,1.139,0.048,1.595h-0.936l-0.06-0.947h-0.024c-0.264,0.468-0.887,1.079-1.919,1.079
			c-0.911,0-2.003-0.516-2.003-2.543v-3.394h1.056v3.202c0,1.104,0.348,1.859,1.295,1.859c0.708,0,1.199-0.492,1.391-0.972
			c0.06-0.145,0.096-0.336,0.096-0.54v-3.55h1.056V-132.608z"/>
		<path d="M-347.185-134.563c-0.06-1.128-0.132-2.495-0.132-3.49h-0.024c-0.288,0.936-0.612,1.955-1.02,3.07l-1.427,3.922h-0.792
			l-1.319-3.85c-0.384-1.151-0.695-2.184-0.923-3.143h-0.024c-0.024,1.008-0.084,2.351-0.156,3.574l-0.216,3.466h-0.995l0.563-8.084
			h1.332l1.379,3.91c0.336,0.995,0.6,1.883,0.815,2.723h0.024c0.216-0.815,0.503-1.703,0.863-2.723l1.439-3.91h1.331l0.504,8.084
			h-1.032L-347.185-134.563z"/>
		<path d="M-340.235-132.405c0,0.504,0.024,0.996,0.084,1.392h-0.947l-0.084-0.731h-0.036c-0.324,0.456-0.947,0.863-1.775,0.863
			c-1.175,0-1.775-0.827-1.775-1.667c0-1.403,1.247-2.171,3.49-2.159v-0.119c0-0.468-0.132-1.344-1.319-1.332
			c-0.551,0-1.115,0.156-1.523,0.432l-0.24-0.707c0.479-0.3,1.188-0.504,1.919-0.504c1.775,0,2.207,1.211,2.207,2.362V-132.405z
			 M-341.254-133.975c-1.151-0.024-2.459,0.18-2.459,1.307c0,0.696,0.456,1.008,0.983,1.008c0.768,0,1.259-0.479,1.427-0.972
			c0.036-0.12,0.048-0.24,0.048-0.336V-133.975z"/>
		<path d="M-338.529-135.007c0-0.684-0.012-1.271-0.048-1.811h0.923l0.048,1.151h0.036c0.264-0.779,0.912-1.271,1.619-1.271
			c0.108,0,0.192,0.012,0.288,0.024v0.995c-0.108-0.024-0.216-0.024-0.36-0.024c-0.744,0-1.271,0.552-1.416,1.344
			c-0.024,0.144-0.036,0.324-0.036,0.491v3.095h-1.056V-135.007z"/>
		<path d="M-333.513-134.156h0.024c0.144-0.203,0.336-0.455,0.504-0.659l1.715-2.003h1.259l-2.23,2.387l2.554,3.418h-1.295
			l-1.991-2.782l-0.54,0.6v2.183h-1.043v-8.516h1.043V-134.156z"/>
		<path d="M-329.049-135.859c0-0.443,0.3-0.755,0.708-0.755c0.432,0,0.708,0.312,0.708,0.755c0,0.42-0.276,0.744-0.72,0.744
			C-328.761-135.115-329.049-135.439-329.049-135.859z M-329.049-131.625c0-0.444,0.3-0.756,0.708-0.756
			c0.432,0,0.708,0.312,0.708,0.756c0,0.42-0.276,0.743-0.72,0.743C-328.761-130.881-329.049-131.205-329.049-131.625z"/>
		<path d="M-311.749-135.139c0,2.771-1.691,4.258-3.754,4.258c-2.147,0-3.634-1.667-3.634-4.113c0-2.567,1.583-4.246,3.742-4.246
			C-313.176-139.241-311.749-137.549-311.749-135.139z M-318.034-135.019c0,1.739,0.936,3.286,2.59,3.286
			c1.655,0,2.591-1.523,2.591-3.358c0-1.619-0.839-3.298-2.579-3.298C-317.17-138.389-318.034-136.782-318.034-135.019z"/>
		<path d="M-310.425-135.247c0-0.612-0.024-1.092-0.048-1.571h0.923l0.048,0.947h0.036c0.324-0.552,0.864-1.067,1.835-1.067
			c0.78,0,1.379,0.479,1.631,1.163h0.024c0.18-0.336,0.419-0.575,0.66-0.755c0.348-0.265,0.719-0.408,1.271-0.408
			c0.78,0,1.919,0.504,1.919,2.519v3.406h-1.031v-3.274c0-1.127-0.42-1.787-1.259-1.787c-0.612,0-1.067,0.444-1.259,0.948
			c-0.048,0.155-0.084,0.335-0.084,0.527v3.586h-1.031v-3.479c0-0.923-0.408-1.583-1.211-1.583c-0.648,0-1.14,0.528-1.308,1.056
			c-0.06,0.144-0.084,0.336-0.084,0.516v3.49h-1.031V-135.247z"/>
		<path d="M-300.153-136.818l0.779,2.95c0.156,0.647,0.312,1.247,0.42,1.847h0.036c0.132-0.587,0.324-1.211,0.516-1.835l0.947-2.962
			h0.888l0.899,2.902c0.216,0.695,0.384,1.308,0.516,1.895h0.036c0.096-0.587,0.252-1.199,0.444-1.883l0.828-2.914h1.043
			l-1.871,5.805h-0.959l-0.888-2.771c-0.204-0.647-0.372-1.224-0.516-1.907h-0.024c-0.144,0.696-0.324,1.296-0.528,1.919
			l-0.936,2.759h-0.959l-1.751-5.805H-300.153z"/>
		<path d="M-290.47-138.21v1.392h1.511v0.804h-1.511v3.13c0,0.72,0.204,1.128,0.792,1.128c0.288,0,0.456-0.024,0.611-0.072
			l0.048,0.804c-0.204,0.071-0.528,0.144-0.936,0.144c-0.492,0-0.888-0.168-1.14-0.443c-0.288-0.324-0.408-0.84-0.408-1.523v-3.166
			h-0.899v-0.804h0.899v-1.079L-290.47-138.21z"/>
		<path d="M-286.498-138.21v1.392h1.511v0.804h-1.511v3.13c0,0.72,0.204,1.128,0.792,1.128c0.288,0,0.456-0.024,0.612-0.072
			l0.048,0.804c-0.204,0.071-0.528,0.144-0.936,0.144c-0.492,0-0.888-0.168-1.14-0.443c-0.288-0.324-0.408-0.84-0.408-1.523v-3.166
			h-0.899v-0.804h0.899v-1.079L-286.498-138.21z"/>
	</g>
	<g id="IDtype:string">
		<path d="M-366.045-124.097v8.084h-1.056v-8.084H-366.045z"/>
		<path d="M-364.22-123.977c0.636-0.107,1.391-0.18,2.219-0.18c1.499,0,2.566,0.359,3.274,1.008
			c0.732,0.659,1.151,1.595,1.151,2.902c0,1.319-0.419,2.398-1.163,3.142c-0.768,0.756-2.015,1.164-3.586,1.164
			c-0.756,0-1.367-0.036-1.895-0.097V-123.977z M-363.177-116.829c0.264,0.036,0.647,0.048,1.055,0.048
			c2.243,0,3.442-1.247,3.442-3.43c0.012-1.907-1.067-3.119-3.274-3.119c-0.54,0-0.947,0.049-1.223,0.108V-116.829z"/>
		<path d="M-354.789-123.21v1.392h1.511v0.804h-1.511v3.13c0,0.72,0.204,1.128,0.792,1.128c0.288,0,0.456-0.024,0.612-0.072
			l0.048,0.804c-0.204,0.071-0.528,0.144-0.936,0.144c-0.492,0-0.888-0.168-1.14-0.443c-0.288-0.324-0.408-0.84-0.408-1.523v-3.166
			h-0.899v-0.804h0.899v-1.079L-354.789-123.21z"/>
		<path d="M-351.597-121.818l1.259,3.43c0.144,0.384,0.288,0.84,0.384,1.188h0.024c0.108-0.348,0.228-0.791,0.372-1.211l1.151-3.406
			h1.115l-1.583,4.138c-0.756,1.991-1.271,2.998-1.991,3.634c-0.527,0.444-1.031,0.624-1.295,0.672l-0.264-0.876
			c0.264-0.084,0.612-0.252,0.924-0.516c0.288-0.228,0.635-0.636,0.887-1.175c0.048-0.108,0.084-0.192,0.084-0.252
			c0-0.061-0.024-0.145-0.084-0.276l-2.135-5.349H-351.597z"/>
		<path d="M-346.329-119.923c0-0.743-0.024-1.343-0.048-1.895h0.936l0.06,0.995h0.024c0.419-0.707,1.115-1.115,2.063-1.115
			c1.416,0,2.471,1.188,2.471,2.938c0,2.087-1.283,3.118-2.65,3.118c-0.768,0-1.439-0.336-1.787-0.911h-0.024v3.154h-1.043V-119.923
			z M-345.286-118.376c0,0.155,0.012,0.3,0.048,0.432c0.192,0.731,0.828,1.235,1.583,1.235c1.115,0,1.763-0.912,1.763-2.243
			c0-1.151-0.611-2.146-1.727-2.146c-0.72,0-1.403,0.504-1.595,1.295c-0.036,0.132-0.072,0.288-0.072,0.42V-118.376z"/>
		<path d="M-338.914-118.724c0.024,1.428,0.923,2.016,1.991,2.016c0.755,0,1.223-0.132,1.607-0.3l0.192,0.755
			c-0.372,0.168-1.019,0.372-1.943,0.372c-1.787,0-2.854-1.188-2.854-2.938s1.032-3.118,2.723-3.118
			c1.907,0,2.399,1.655,2.399,2.723c0,0.216-0.012,0.372-0.036,0.491H-338.914z M-335.819-119.479
			c0.012-0.66-0.276-1.703-1.463-1.703c-1.08,0-1.535,0.972-1.619,1.703H-335.819z"/>
		<path d="M-333.729-120.859c0-0.443,0.3-0.755,0.708-0.755c0.432,0,0.708,0.312,0.708,0.755c0,0.42-0.276,0.744-0.72,0.744
			C-333.441-120.115-333.729-120.439-333.729-120.859z M-333.729-116.625c0-0.444,0.3-0.756,0.708-0.756
			c0.432,0,0.708,0.312,0.708,0.756c0,0.42-0.276,0.743-0.72,0.743C-333.441-115.881-333.729-116.205-333.729-116.625z"/>
		<path d="M-323.518-117.081c0.324,0.191,0.875,0.408,1.403,0.408c0.756,0,1.115-0.372,1.115-0.864c0-0.504-0.3-0.768-1.067-1.055
			c-1.055-0.384-1.547-0.948-1.547-1.644c0-0.936,0.768-1.703,2.003-1.703c0.587,0,1.103,0.156,1.415,0.36l-0.252,0.768
			c-0.228-0.145-0.647-0.349-1.187-0.349c-0.624,0-0.959,0.36-0.959,0.792c0,0.479,0.335,0.695,1.091,0.995
			c0.995,0.372,1.523,0.876,1.523,1.739c0,1.031-0.803,1.751-2.159,1.751c-0.636,0-1.223-0.168-1.631-0.407L-323.518-117.081z"/>
		<path d="M-317.351-123.21v1.392h1.511v0.804h-1.511v3.13c0,0.72,0.204,1.128,0.792,1.128c0.288,0,0.456-0.024,0.612-0.072
			l0.048,0.804c-0.204,0.071-0.528,0.144-0.936,0.144c-0.492,0-0.888-0.168-1.14-0.443c-0.288-0.324-0.408-0.84-0.408-1.523v-3.166
			h-0.899v-0.804h0.899v-1.079L-317.351-123.21z"/>
		<path d="M-314.65-120.007c0-0.684-0.012-1.271-0.048-1.811h0.923l0.048,1.151h0.036c0.264-0.779,0.912-1.271,1.619-1.271
			c0.108,0,0.192,0.012,0.288,0.024v0.995c-0.108-0.024-0.216-0.024-0.36-0.024c-0.744,0-1.271,0.552-1.416,1.344
			c-0.024,0.144-0.036,0.324-0.036,0.491v3.095h-1.056V-120.007z"/>
		<path d="M-309.503-123.449c0,0.359-0.252,0.647-0.671,0.647c-0.384,0-0.636-0.288-0.636-0.647c0-0.36,0.264-0.66,0.66-0.66
			C-309.767-124.109-309.503-123.821-309.503-123.449z M-310.678-116.013v-5.805h1.056v5.805H-310.678z"/>
		<path d="M-307.87-120.247c0-0.612-0.012-1.092-0.048-1.571h0.936l0.06,0.959h0.024c0.288-0.539,0.959-1.079,1.919-1.079
			c0.803,0,2.051,0.479,2.051,2.471v3.454h-1.056v-3.346c0-0.936-0.348-1.716-1.343-1.716c-0.684,0-1.223,0.492-1.415,1.08
			c-0.048,0.132-0.072,0.312-0.072,0.491v3.49h-1.056V-120.247z"/>
		<path d="M-296.245-116.865c0,1.344-0.276,2.146-0.828,2.662c-0.576,0.517-1.391,0.696-2.123,0.696
			c-0.696,0-1.463-0.168-1.931-0.479l0.264-0.816c0.384,0.252,0.984,0.468,1.703,0.468c1.08,0,1.871-0.563,1.871-2.038v-0.636
			h-0.024c-0.312,0.539-0.948,0.971-1.847,0.971c-1.439,0-2.471-1.223-2.471-2.83c0-1.967,1.284-3.07,2.627-3.07
			c1.007,0,1.547,0.516,1.811,0.995h0.024l0.036-0.875h0.936c-0.036,0.407-0.048,0.888-0.048,1.583V-116.865z M-297.301-119.527
			c0-0.181-0.012-0.336-0.06-0.468c-0.192-0.624-0.696-1.128-1.476-1.128c-1.007,0-1.727,0.852-1.727,2.195
			c0,1.139,0.588,2.087,1.715,2.087c0.66,0,1.247-0.408,1.463-1.08c0.06-0.18,0.084-0.384,0.084-0.563V-119.527z"/>
	</g>
	<g id="IDlength:6">
		<path d="M-366.045-109.097v8.084h-1.056v-8.084H-366.045z"/>
		<path d="M-364.22-108.977c0.636-0.107,1.391-0.18,2.219-0.18c1.499,0,2.566,0.359,3.274,1.008
			c0.732,0.659,1.151,1.595,1.151,2.902c0,1.319-0.419,2.398-1.163,3.142c-0.768,0.756-2.015,1.164-3.586,1.164
			c-0.756,0-1.367-0.036-1.895-0.097V-108.977z M-363.177-101.829c0.264,0.036,0.647,0.048,1.055,0.048
			c2.243,0,3.442-1.247,3.442-3.43c0.012-1.907-1.067-3.119-3.274-3.119c-0.54,0-0.947,0.049-1.223,0.108V-101.829z"/>
		<path d="M-356.265-109.529h1.056v8.516h-1.056V-109.529z"/>
		<path d="M-352.845-103.724c0.024,1.428,0.923,2.016,1.991,2.016c0.755,0,1.223-0.132,1.607-0.3l0.192,0.755
			c-0.372,0.168-1.019,0.372-1.943,0.372c-1.787,0-2.854-1.188-2.854-2.938s1.032-3.118,2.723-3.118
			c1.907,0,2.399,1.655,2.399,2.723c0,0.216-0.012,0.372-0.036,0.491H-352.845z M-349.75-104.479
			c0.012-0.66-0.276-1.703-1.463-1.703c-1.079,0-1.535,0.972-1.619,1.703H-349.75z"/>
		<path d="M-347.421-105.247c0-0.612-0.012-1.092-0.048-1.571h0.936l0.06,0.959h0.024c0.288-0.539,0.959-1.079,1.919-1.079
			c0.803,0,2.051,0.479,2.051,2.471v3.454h-1.056v-3.346c0-0.936-0.348-1.716-1.343-1.716c-0.684,0-1.223,0.492-1.415,1.08
			c-0.048,0.132-0.072,0.312-0.072,0.491v3.49h-1.056V-105.247z"/>
		<path d="M-335.796-101.865c0,1.344-0.276,2.146-0.828,2.662c-0.576,0.517-1.391,0.696-2.123,0.696
			c-0.696,0-1.463-0.168-1.931-0.479l0.264-0.816c0.384,0.252,0.984,0.468,1.703,0.468c1.08,0,1.871-0.563,1.871-2.038v-0.636
			h-0.024c-0.312,0.539-0.948,0.971-1.847,0.971c-1.439,0-2.471-1.223-2.471-2.83c0-1.967,1.284-3.07,2.627-3.07
			c1.007,0,1.547,0.516,1.811,0.995h0.024l0.036-0.875h0.936c-0.036,0.407-0.048,0.888-0.048,1.583V-101.865z M-336.852-104.527
			c0-0.181-0.012-0.336-0.06-0.468c-0.192-0.624-0.696-1.128-1.476-1.128c-1.007,0-1.727,0.852-1.727,2.195
			c0,1.139,0.588,2.087,1.715,2.087c0.66,0,1.247-0.408,1.463-1.08c0.06-0.18,0.084-0.384,0.084-0.563V-104.527z"/>
		<path d="M-332.782-108.21v1.392h1.511v0.804h-1.511v3.13c0,0.72,0.204,1.128,0.792,1.128c0.288,0,0.456-0.024,0.611-0.072
			l0.048,0.804c-0.204,0.071-0.528,0.144-0.936,0.144c-0.492,0-0.888-0.168-1.14-0.443c-0.288-0.324-0.408-0.84-0.408-1.523v-3.166
			h-0.899v-0.804h0.899v-1.079L-332.782-108.21z"/>
		<path d="M-330.081-109.529h1.056v3.635h0.024c0.168-0.301,0.432-0.576,0.755-0.756c0.312-0.18,0.684-0.288,1.08-0.288
			c0.779,0,2.027,0.479,2.027,2.471v3.454h-1.056v-3.334c0-0.936-0.348-1.715-1.343-1.715c-0.684,0-1.211,0.479-1.415,1.043
			c-0.06,0.156-0.072,0.312-0.072,0.504v3.502h-1.056V-109.529z"/>
		<path d="M-323.661-105.859c0-0.443,0.3-0.755,0.708-0.755c0.432,0,0.708,0.312,0.708,0.755c0,0.42-0.276,0.744-0.72,0.744
			C-323.374-105.115-323.661-105.439-323.661-105.859z M-323.661-101.625c0-0.444,0.3-0.756,0.708-0.756
			c0.432,0,0.708,0.312,0.708,0.756c0,0.42-0.276,0.743-0.72,0.743C-323.374-100.881-323.661-101.205-323.661-101.625z"/>
		<path d="M-309.192-108.065c-0.216-0.013-0.492,0.012-0.792,0.06c-1.667,0.264-2.531,1.463-2.71,2.759h0.024
			c0.372-0.504,1.031-0.912,1.895-0.912c1.379,0,2.351,1.008,2.351,2.519c0,1.439-0.972,2.759-2.603,2.759
			c-1.655,0-2.747-1.295-2.747-3.322c0-1.535,0.54-2.746,1.319-3.514c0.647-0.636,1.511-1.031,2.495-1.151
			c0.312-0.048,0.576-0.061,0.768-0.061V-108.065z M-309.492-103.568c0-1.115-0.636-1.787-1.607-1.787
			c-0.636,0-1.235,0.384-1.523,0.96c-0.06,0.12-0.108,0.264-0.108,0.455c0.012,1.283,0.612,2.243,1.727,2.243
			C-310.104-101.697-309.492-102.453-309.492-103.568z"/>
	</g>
	<g id="Elements:70">
		<path d="M-362.915-89.803h-3.13v2.914h3.502v0.876h-4.558v-8.084h4.378v0.876h-3.322v2.555h3.13V-89.803z"/>
		<path d="M-361.221-94.529h1.056v8.516h-1.056V-94.529z"/>
		<path d="M-357.801-88.724c0.024,1.428,0.923,2.016,1.991,2.016c0.755,0,1.223-0.132,1.607-0.3l0.192,0.755
			c-0.372,0.168-1.019,0.372-1.943,0.372c-1.787,0-2.854-1.188-2.854-2.938s1.032-3.118,2.723-3.118
			c1.907,0,2.399,1.655,2.399,2.723c0,0.216-0.012,0.372-0.036,0.491H-357.801z M-354.707-89.479
			c0.012-0.66-0.276-1.703-1.463-1.703c-1.079,0-1.535,0.972-1.619,1.703H-354.707z"/>
		<path d="M-352.377-90.247c0-0.612-0.024-1.092-0.048-1.571h0.923l0.048,0.947h0.036c0.324-0.552,0.864-1.067,1.835-1.067
			c0.78,0,1.379,0.479,1.631,1.163h0.024c0.18-0.336,0.419-0.575,0.66-0.755c0.348-0.265,0.719-0.408,1.271-0.408
			c0.78,0,1.919,0.504,1.919,2.519v3.406h-1.031v-3.274c0-1.127-0.42-1.787-1.259-1.787c-0.612,0-1.067,0.444-1.259,0.948
			c-0.048,0.155-0.084,0.335-0.084,0.527v3.586h-1.032v-3.479c0-0.923-0.408-1.583-1.211-1.583c-0.648,0-1.14,0.528-1.308,1.056
			c-0.06,0.144-0.084,0.336-0.084,0.516v3.49h-1.031V-90.247z"/>
		<path d="M-341.781-88.724c0.024,1.428,0.923,2.016,1.991,2.016c0.755,0,1.223-0.132,1.607-0.3l0.192,0.755
			c-0.372,0.168-1.019,0.372-1.943,0.372c-1.787,0-2.854-1.188-2.854-2.938s1.032-3.118,2.723-3.118
			c1.907,0,2.399,1.655,2.399,2.723c0,0.216-0.012,0.372-0.036,0.491H-341.781z M-338.687-89.479
			c0.012-0.66-0.276-1.703-1.463-1.703c-1.08,0-1.535,0.972-1.619,1.703H-338.687z"/>
		<path d="M-336.357-90.247c0-0.612-0.012-1.092-0.048-1.571h0.936l0.06,0.959h0.024c0.288-0.539,0.959-1.079,1.919-1.079
			c0.803,0,2.051,0.479,2.051,2.471v3.454h-1.056v-3.346c0-0.936-0.348-1.716-1.343-1.716c-0.684,0-1.223,0.492-1.415,1.08
			c-0.048,0.132-0.072,0.312-0.072,0.491v3.49h-1.056V-90.247z"/>
		<path d="M-328.474-93.21v1.392h1.511v0.804h-1.511v3.13c0,0.72,0.204,1.128,0.792,1.128c0.288,0,0.456-0.024,0.612-0.072
			l0.048,0.804c-0.204,0.071-0.528,0.144-0.936,0.144c-0.492,0-0.888-0.168-1.14-0.443c-0.288-0.324-0.408-0.84-0.408-1.523v-3.166
			h-0.899v-0.804h0.899v-1.079L-328.474-93.21z"/>
		<path d="M-325.917-87.081c0.324,0.191,0.875,0.408,1.403,0.408c0.756,0,1.115-0.372,1.115-0.864c0-0.504-0.3-0.768-1.067-1.055
			c-1.055-0.384-1.547-0.948-1.547-1.644c0-0.936,0.768-1.703,2.003-1.703c0.587,0,1.104,0.156,1.415,0.36l-0.252,0.768
			c-0.228-0.145-0.647-0.349-1.187-0.349c-0.624,0-0.959,0.36-0.959,0.792c0,0.479,0.335,0.695,1.091,0.995
			c0.996,0.372,1.523,0.876,1.523,1.739c0,1.031-0.803,1.751-2.159,1.751c-0.636,0-1.223-0.168-1.631-0.407L-325.917-87.081z"/>
		<path d="M-318.477-90.007c0-0.684-0.012-1.271-0.048-1.811h0.923l0.048,1.151h0.036c0.264-0.779,0.912-1.271,1.619-1.271
			c0.108,0,0.192,0.012,0.288,0.024v0.995c-0.108-0.024-0.216-0.024-0.36-0.024c-0.744,0-1.271,0.552-1.416,1.344
			c-0.024,0.144-0.036,0.324-0.036,0.491v3.095h-1.056V-90.007z"/>
		<path d="M-314.085-88.724c0.024,1.428,0.923,2.016,1.991,2.016c0.755,0,1.223-0.132,1.607-0.3l0.192,0.755
			c-0.372,0.168-1.019,0.372-1.943,0.372c-1.787,0-2.854-1.188-2.854-2.938s1.032-3.118,2.723-3.118
			c1.907,0,2.399,1.655,2.399,2.723c0,0.216-0.012,0.372-0.036,0.491H-314.085z M-310.991-89.479
			c0.012-0.66-0.276-1.703-1.463-1.703c-1.08,0-1.535,0.972-1.619,1.703H-310.991z"/>
		<path d="M-304.703-86.901h-0.024c-0.324,0.563-0.959,1.02-1.895,1.02c-1.355,0-2.459-1.163-2.459-2.927
			c0-2.183,1.403-3.13,2.627-3.13c0.899,0,1.499,0.443,1.787,0.995h0.024l0.036-0.875h0.996c-0.024,0.479-0.048,0.995-0.048,1.595
			v6.585h-1.043V-86.901z M-304.703-89.467c0-0.144-0.012-0.3-0.048-0.432c-0.167-0.647-0.719-1.199-1.511-1.199
			c-1.092,0-1.751,0.923-1.751,2.219c0,1.163,0.552,2.158,1.715,2.158c0.684,0,1.271-0.419,1.511-1.139
			c0.048-0.156,0.084-0.36,0.084-0.516V-89.467z"/>
		<path d="M-297.048-87.608c0,0.611,0.012,1.139,0.048,1.595h-0.936l-0.06-0.947h-0.024c-0.264,0.468-0.887,1.079-1.919,1.079
			c-0.911,0-2.003-0.516-2.003-2.543v-3.394h1.056v3.202c0,1.104,0.348,1.859,1.295,1.859c0.708,0,1.199-0.492,1.391-0.972
			c0.06-0.145,0.096-0.336,0.096-0.54v-3.55h1.056V-87.608z"/>
		<path d="M-294.118-93.449c0,0.359-0.252,0.647-0.671,0.647c-0.384,0-0.636-0.288-0.636-0.647c0-0.36,0.264-0.66,0.66-0.66
			C-294.382-94.109-294.118-93.821-294.118-93.449z M-295.293-86.013v-5.805h1.056v5.805H-295.293z"/>
		<path d="M-292.486-90.007c0-0.684-0.012-1.271-0.048-1.811h0.923l0.048,1.151h0.036c0.264-0.779,0.912-1.271,1.619-1.271
			c0.108,0,0.192,0.012,0.288,0.024v0.995c-0.108-0.024-0.216-0.024-0.36-0.024c-0.744,0-1.271,0.552-1.416,1.344
			c-0.024,0.144-0.036,0.324-0.036,0.491v3.095h-1.056V-90.007z"/>
		<path d="M-288.094-88.724c0.024,1.428,0.923,2.016,1.991,2.016c0.755,0,1.223-0.132,1.607-0.3l0.192,0.755
			c-0.372,0.168-1.019,0.372-1.943,0.372c-1.787,0-2.854-1.188-2.854-2.938s1.032-3.118,2.723-3.118
			c1.907,0,2.399,1.655,2.399,2.723c0,0.216-0.012,0.372-0.036,0.491H-288.094z M-285-89.479c0.012-0.66-0.276-1.703-1.463-1.703
			c-1.079,0-1.535,0.972-1.619,1.703H-285z"/>
		<path d="M-277.668-94.529v7.017c0,0.516,0.024,1.104,0.048,1.499h-0.936l-0.048-1.008h-0.036c-0.312,0.648-1.007,1.14-1.955,1.14
			c-1.403,0-2.495-1.188-2.495-2.95c-0.012-1.931,1.2-3.106,2.603-3.106c0.9,0,1.487,0.42,1.751,0.876h0.024v-3.467H-277.668z
			 M-278.711-89.456c0-0.132-0.012-0.312-0.048-0.443c-0.156-0.66-0.731-1.212-1.523-1.212c-1.091,0-1.739,0.96-1.739,2.231
			c0,1.175,0.588,2.146,1.715,2.146c0.708,0,1.355-0.479,1.547-1.259c0.036-0.145,0.048-0.288,0.048-0.456V-89.456z"/>
		<path d="M-276.142-90.859c0-0.443,0.3-0.755,0.708-0.755c0.432,0,0.708,0.312,0.708,0.755c0,0.42-0.276,0.744-0.72,0.744
			C-275.854-90.115-276.142-90.439-276.142-90.859z M-276.142-86.625c0-0.444,0.3-0.756,0.708-0.756
			c0.432,0,0.708,0.312,0.708,0.756c0,0.42-0.276,0.743-0.72,0.743C-275.854-85.881-276.142-86.205-276.142-86.625z"/>
		<path d="M-261.061-93.809v0.696l-3.395,7.1h-1.091l3.382-6.896v-0.023h-3.814v-0.876H-261.061z"/>
		<path d="M-254.773-89.995c0,2.65-0.996,4.113-2.71,4.113c-1.523,0-2.567-1.427-2.591-4.006c0-2.626,1.14-4.054,2.723-4.054
			C-255.721-93.941-254.773-92.478-254.773-89.995z M-259.007-89.876c0,2.027,0.624,3.179,1.583,3.179
			c1.067,0,1.583-1.26,1.583-3.25c0-1.919-0.48-3.179-1.583-3.179C-258.335-93.126-259.007-91.998-259.007-89.876z"/>
	</g>
	<g>
	</g>
	<g>
	</g>
	<g>
	</g>
	<g>
	</g>
	<g>
	</g>
	<g>
	</g>
</g>
</svg>
