<?xml version='1.0' encoding='UTF-8'?>
<svg xmlns="http://www.w3.org/2000/svg" style="enable-background:new 0 0 525 383.956;" version="1.1" viewBox="0 0 525 383.956" x="0px" y="0px" xml:space="preserve">
<g id="VuMark-Border">
	<polygon points="153.125,51.129 204.934,0 443.257,0 525,116.247 525,254.925 431.743,376.034    63.322,383.956 0,267.606 0,174.13 66.776,59.57  " style="fill:#C13C80;" />
</g>
<g id="VuMark-ClearSpace">
	<polyline points="499,126.851 428.902,30.387 215.105,30.387 156.69,88.59 74.91,95.546 23.505,191.665    20,261.347 74.91,352.943 420.724,348.305 499,248.593  " style="fill:#F8F8F7;" />
</g>
<g id="VuMark-DarkElements">
	<polygon id="d0000" points="134.477,227.685 130.144,235.19 121.477,235.19 117.144,227.685    121.477,220.179 130.144,220.179  " style="fill:#09060A;" />
	<polygon id="d0002" points="148.444,235.695 144.111,243.2 135.444,243.2 131.111,235.695 135.444,228.189    144.111,228.189  " style="fill:#09060A;" />
	<polygon id="d0003" points="161.843,227.612 157.51,235.117 148.843,235.117 144.51,227.612    148.843,220.106 157.51,220.106  " style="fill:#09060A;" />
	<polygon id="d0004" points="162.075,243.809 157.741,251.315 149.075,251.315 144.741,243.809    149.075,236.304 157.741,236.304  " style="fill:#09060A;" />
	<polygon id="d0005" points="175.843,219.876 171.51,227.381 162.843,227.381 158.51,219.876 162.843,212.37    171.51,212.37  " style="fill:#09060A;" />
	<polygon id="d0008" points="189.922,212.555 185.589,220.061 176.922,220.061 172.589,212.555    176.922,205.05 185.589,205.05  " style="fill:#09060A;" />
	<polygon id="d0011" points="204.213,220.506 199.88,228.012 191.213,228.012 186.88,220.506    191.213,213.001 199.88,213.001  " style="fill:#09060A;" />
	<polygon id="d0012" points="218.075,243.995 213.741,251.501 205.075,251.501 200.741,243.995    205.075,236.489 213.741,236.489  " style="fill:#09060A;" />
	<polygon id="d0013" points="218.075,228.422 213.741,235.928 205.075,235.928 200.741,228.422    205.075,220.916 213.741,220.916  " style="fill:#09060A;" />
	<polygon id="d0014" points="130.815,174.405 126.481,181.911 117.815,181.911 113.481,174.405    117.815,166.9 126.481,166.9  " style="fill:#09060A;" />
	<polygon id="d0019" points="176.469,204.057 172.136,211.563 163.469,211.563 159.136,204.057    163.469,196.552 172.136,196.552  " style="fill:#09060A;" />
	<polygon id="d0020" points="190.05,196.082 185.717,203.587 177.05,203.587 172.717,196.082 177.05,188.576    185.717,188.576  " style="fill:#09060A;" />
	<polygon id="d0021" points="130.815,158.047 126.481,165.553 117.815,165.553 113.481,158.047    117.815,150.542 126.481,150.542  " style="fill:#09060A;" />
	<polygon id="d0023" points="145.148,149.964 140.815,157.47 132.148,157.47 127.815,149.964    132.148,142.459 140.815,142.459  " style="fill:#09060A;" />
	<polygon id="d0024" points="159.148,174.213 154.815,181.719 146.148,181.719 141.815,174.213    146.148,166.707 154.815,166.707  " style="fill:#09060A;" />
	<polygon id="d0026" points="186.921,163.92 182.588,171.425 173.921,171.425 169.588,163.92    173.921,156.414 182.588,156.414  " style="fill:#09060A;" />
<polygon id="d0028" points="201.075,156.414 196.741,163.92 188.075,163.92 183.741,156.414    188.075,148.908 196.741,148.908  " style="fill:#09060A;" />
	<polygon id="d0030" points="203.982,204.518 199.649,212.023 190.982,212.023 186.649,204.518    190.982,197.012 199.649,197.012  " style="fill:#09060A;" />
	<polygon id="d0031" points="215.075,147.818 210.741,155.324 202.075,155.324 197.741,147.818    202.075,140.313 210.741,140.313  " style="fill:#09060A;" />
	<polygon id="d0032" points="216.275,163.92 211.941,171.425 203.275,171.425 198.941,163.92    203.275,156.414 211.941,156.414  " style="fill:#09060A;" />
	<polygon id="d0034" points="218.368,196.443 214.035,203.948 205.368,203.948 201.035,196.443    205.368,188.937 214.035,188.937  " style="fill:#09060A;" />
	<polygon id="d0038" points="246.213,227.749 241.88,235.255 233.213,235.255 228.88,227.749    233.213,220.244 241.88,220.244  " style="fill:#09060A;" />
	<polygon id="d0039" points="259.919,219.837 255.585,227.342 246.919,227.342 242.585,219.837    246.919,212.331 255.585,212.331  " style="fill:#09060A;" />
	<polygon id="d0040" points="259.919,236.628 255.585,244.134 246.919,244.134 242.585,236.628    246.919,229.123 255.585,229.123  " style="fill:#09060A;" />
	<polygon id="d0041" points="273.45,227.645 269.117,235.151 260.45,235.151 256.117,227.645 260.45,220.14    269.117,220.14  " style="fill:#09060A;" />
	<polygon id="d0042" points="231.557,203.923 227.223,211.429 218.557,211.429 214.223,203.923    218.557,196.418 227.223,196.418  " style="fill:#09060A;" />
	<polygon id="d0043" points="231.755,188.313 227.421,195.818 218.755,195.818 214.421,188.313    218.755,180.807 227.421,180.807  " style="fill:#09060A;" />
	<polygon id="d0044" points="245.742,195.818 241.409,203.324 232.742,203.324 228.409,195.818    232.742,188.313 241.409,188.313  " style="fill:#09060A;" />
	<polygon id="d0045" points="246.01,211.407 241.677,218.912 233.01,218.912 228.677,211.407 233.01,203.901    241.677,203.901  " style="fill:#09060A;" />
	<polygon id="d0047" points="260.41,188.313 256.076,195.818 247.41,195.818 243.076,188.313 247.41,180.807    256.076,180.807  " style="fill:#09060A;" />
	<polygon id="d0051" points="287.808,220.801 283.474,228.307 274.808,228.307 270.474,220.801    274.808,213.296 283.474,213.296  " style="fill:#09060A;" />
	<polygon id="d0052" points="301.932,244.326 297.598,251.831 288.932,251.831 284.598,244.326    288.932,236.82 297.598,236.82  " style="fill:#09060A;" />
	<polygon id="d0053" points="302.275,228.422 297.941,235.928 289.275,235.928 284.941,228.422    289.275,220.916 297.941,220.916  " style="fill:#09060A;" />
	<polygon id="d0055" points="316.08,236.425 311.746,243.931 303.08,243.931 298.746,236.425 303.08,228.919    311.746,228.919  " style="fill:#09060A;" />
	<polygon id="d0057" points="288.11,204.653 283.777,212.159 275.11,212.159 270.777,204.653 275.11,197.148    283.777,197.148  " style="fill:#09060A;" />
	<polygon id="d0058" points="288.11,188.505 283.777,196.011 275.11,196.011 270.777,188.505 275.11,181    283.777,181  " style="fill:#09060A;" />
	<polygon id="d0059" points="302.079,212.699 297.746,220.205 289.079,220.205 284.746,212.699    289.079,205.194 297.746,205.194  " style="fill:#09060A;" />
	<polygon id="d0061" points="316.08,204.478 311.746,211.984 303.08,211.984 298.746,204.478 303.08,196.973    311.746,196.973  " style="fill:#09060A;" />
	<polygon id="d0062" points="316.08,188.505 311.746,196.011 303.08,196.011 298.746,188.505 303.08,181    311.746,181  " style="fill:#09060A;" />
	<polygon id="d0063" points="329.875,244.28 325.541,251.786 316.875,251.786 312.541,244.28    316.875,236.775 325.541,236.775  " style="fill:#09060A;" />
	<polygon id="d0064" points="329.875,195.818 325.541,203.324 316.875,203.324 312.541,195.818    316.875,188.313 325.541,188.313  " style="fill:#09060A;" />
	<polygon id="d0065" points="329.942,212.06 325.609,219.566 316.942,219.566 312.609,212.06    316.942,204.555 325.609,204.555  " style="fill:#09060A;" />
	<polygon id="d0067" points="343.996,203.947 339.662,211.452 330.996,211.452 326.662,203.947    330.996,196.441 339.662,196.441  " style="fill:#09060A;" />
	</g>
<g id="VuMark-BrightElements">
	<polygon id="b0001" points="147.966,219.838 143.633,227.344 134.966,227.344 130.633,219.838    134.966,212.333 143.633,212.333  " style="fill:#FFFFFF;" />
	<polygon id="b0006" points="175.807,235.728 171.473,243.234 162.807,243.234 158.473,235.728    162.807,228.223 171.473,228.223  " style="fill:#FFFFFF;" />
	<polygon id="b0007" points="189.541,243.857 185.207,251.362 176.541,251.362 172.207,243.857    176.541,236.351 185.207,236.351  " style="fill:#FFFFFF;" />
	<polygon id="b0009" points="189.807,228.491 185.473,235.996 176.807,235.996 172.473,228.491    176.807,220.985 185.473,220.985  " style="fill:#FFFFFF;" />
	<polygon id="b0010" points="203.807,236.63 199.473,244.136 190.807,244.136 186.473,236.63    190.807,229.125 199.473,229.125  " style="fill:#FFFFFF;" />
	<polygon id="b0015" points="134.407,211.408 130.074,218.914 121.407,218.914 117.074,211.408    121.407,203.903 130.074,203.903  " style="fill:#FFFFFF;" />
	<polygon id="b0016" points="144.88,181.72 140.547,189.226 131.88,189.226 127.547,181.72 131.88,174.215    140.547,174.215  " style="fill:#FFFFFF;" />
	<polygon id="b0017" points="148.473,204.48 144.14,211.986 135.473,211.986 131.14,204.48 135.473,196.975    144.14,196.975  " style="fill:#FFFFFF;" />
	<polygon id="b0018" points="162.398,212.062 158.065,219.568 149.398,219.568 145.065,212.062    149.398,204.557 158.065,204.557  " style="fill:#FFFFFF;" />
	<polygon id="b0022" points="144.88,166.132 140.547,173.637 131.88,173.637 127.547,166.132 131.88,158.626    140.547,158.626  " style="fill:#FFFFFF;" />
	<polygon id="b0025" points="158.88,158.049 154.547,165.554 145.88,165.554 141.547,158.049 145.88,150.543    154.547,150.543  " style="fill:#FFFFFF;" />
	<polygon id="b0027" points="187.407,147.82 183.073,155.326 174.407,155.326 170.073,147.82    174.407,140.314 183.073,140.314  " style="fill:#FFFFFF;" />
	<polygon id="b0029" points="203.945,188.462 199.612,195.967 190.945,195.967 186.612,188.462    190.945,180.956 199.612,180.956  " style="fill:#FFFFFF;" />
	<polygon id="b0033" points="217.807,212.505 213.473,220.011 204.807,220.011 200.473,212.505 204.807,205    213.473,205  " style="fill:#FFFFFF;" />
	<polygon id="b0035" points="232.279,235.871 227.946,243.377 219.279,243.377 214.946,235.871    219.279,228.366 227.946,228.366  " style="fill:#FFFFFF;" />
	<polygon id="b0036" points="232.279,219.728 227.946,227.233 219.279,227.233 214.946,219.728    219.279,212.222 227.946,212.222  " style="fill:#FFFFFF;" />
	<polygon id="b0037" points="245.742,243.857 241.409,251.362 232.742,251.362 228.409,243.857    232.742,236.351 241.409,236.351  " style="fill:#FFFFFF;" />
	<polygon id="b0046" points="259.651,203.925 255.317,211.431 246.651,211.431 242.317,203.925    246.651,196.42 255.317,196.42  " style="fill:#FFFFFF;" />
	<polygon id="b0048" points="273.517,212.062 269.184,219.568 260.517,219.568 256.184,212.062    260.517,204.557 269.184,204.557  " style="fill:#FFFFFF;" />
	<polygon id="b0049" points="273.789,244.327 269.456,251.833 260.789,251.833 256.456,244.327    260.789,236.822 269.456,236.822  " style="fill:#FFFFFF;" />
	<polygon id="b0050" points="287.474,236.427 283.14,243.932 274.474,243.932 270.14,236.427    274.474,228.921 283.14,228.921  " style="fill:#FFFFFF;" />
	<polygon id="b0054" points="316.587,220.453 312.254,227.959 303.587,227.959 299.254,220.453    303.587,212.948 312.254,212.948  " style="fill:#FFFFFF;" />
	<polygon id="b0056" points="274.037,196.477 269.704,203.983 261.037,203.983 256.704,196.477    261.037,188.972 269.704,188.972  " style="fill:#FFFFFF;" />
	<polygon id="b0060" points="302.007,196.477 297.673,203.983 289.007,203.983 284.673,196.477    289.007,188.972 297.673,188.972  " style="fill:#FFFFFF;" />
	<polygon id="b0066" points="329.674,228.491 325.341,235.996 316.674,235.996 312.341,228.491    316.674,220.985 325.341,220.985  " style="fill:#FFFFFF;" />
	<polygon id="b0068" points="344.031,220.803 339.697,228.309 331.031,228.309 326.697,220.803    331.031,213.297 339.697,213.297  " style="fill:#FFFFFF;" />
	<polygon id="b0069" points="344.031,236.427 339.697,243.932 331.031,243.932 326.697,236.427    331.031,228.921 339.697,228.921  " style="fill:#FFFFFF;" />
	</g>
<g id="VuMark-Background">
	<path d="M277.134,297.66c-0.486,1.404-20.318-6.212-49.743-11.282c-13.64-2.35-25.724-4.432-41.971-4.029   c-17.445,0.433-30.092,3.493-48.966,8.059c-12.713,3.076-37.57,9.729-37.152,12.088c0.384,2.165,21.422-2.751,51.919-1.612   c10.369,0.387,20.653,1.43,55.183,8.059c60.968,11.703,54.841,13.429,73.06,15.163c20.384,1.94,53.393,5.082,88.604-11.133   c14.188-6.534,37.586-16.747,52.075-41.1c16.854-28.327,12.605-60.164,15.419-60.037c2.025,0.091,4.938,16.616,2.014,35.078   c-3.568,22.529-14.094,36.99-12.485,38.001c1.299,0.817,8.744-8.256,14.499-18.374c1.439-2.531,7.362-13.196,11.68-30.902   c0.827-3.391,4.6-19.363,4.444-41.76c-0.075-10.769-0.152-21.908-3.638-35.913c-5.267-21.157-15.285-36.688-22.554-45.936   c-7.808-9.933-20.158-25.645-42.288-33.825c-25.917-9.58-48.772-2.742-58.801,0.418c-9.453,2.978-25.233,8.165-38.664,22.968   c-16.956,18.688-25.007,47.014-18.526,52.2c3.303,2.643,10.056-0.984,12.888-2.506c10.881-5.844,17.534-19.654,19.332-23.385   c1.717-3.563,2.718-6.392,4.027-6.264c2.002,0.196,3.988,7.232,3.222,13.781c-0.62,5.301-2.784,8.056-1.611,9.187   c1.333,1.286,5.504-0.948,8.055-2.923c1.416-1.096,5.548-4.602,8.055-12.11c2.967-8.884,0.517-13.963,3.625-15.869   c1.799-1.103,4.287-0.178,9.263,1.67c5.077,1.886,8.666,4.12,10.069,5.011c1.037,0.659,9.597,6.131,14.902,11.275   c20.767,20.141,19.805,62.585,18.929,69.321c-0.863,6.633-1.822,9.864-1.822,9.864c-0.985,3.317-1.839,4.825-1.4,5.169   c0.916,0.717,6.4-4.454,10.471-10.022c5.174-7.077,7.3-13.748,8.86-18.792c3.499-11.308,3.836-21.089,4.027-27.979   c0.11-3.96-0.21-7.081,0-7.099c0.44-0.039,2.545,13.486,2.9,24.61c0.211,6.608,0.736,31.199-11.223,53.898   c-14.18,26.916-39.044,38.133-47.846,41.955c-55.661,24.163-116.32-6.607-117.797-1.515l28.898,17.746L277.134,297.66z" style="fill:#C13C80;" />
	<line style="fill:#FBF6FA;" x1="468" x2="468" y1="143.943" y2="248.943" />
</g>
</svg>